<svg width="64" height="64" viewBox="0 0 64 64" fill="none" xmlns="http://www.w3.org/2000/svg">
<g clip-path="url(#clip0_12_180)">
<path d="M56.0061 7.7334C55.6333 11.0848 54.336 14.0161 52.1143 16.5273" stroke="#2F235F" stroke-width="2"/>
<path d="M52.1143 16.5273L51.1619 17.4416" stroke="#382B6A" stroke-width="2"/>
<path d="M51.1619 17.4417C50.7434 17.8632 50.2974 18.2345 49.824 18.5556" stroke="#433975" stroke-width="2"/>
<path d="M49.824 18.5554C49.4969 18.6783 49.2023 18.851 48.9402 19.0735C46.9623 20.7497 44.5029 22.0968 42.2172 23.1268C39.714 24.2555 37.0387 25.2734 34.1913 26.1806C34.1181 26.2049 33.8103 26.3787 34.1333 26.4061" stroke="#1F2017" stroke-width="2"/>
<path d="M34.1333 26.4062L30.6286 27.2322" stroke="#1B5887" stroke-width="2"/>
<path d="M30.6286 27.2321C31.0202 26.7552 27.9147 27.7441 27.8309 27.7655C27.5556 27.8376 27.4169 27.8737 27.4149 27.8737C22.6514 29.3959 18.6941 31.8767 15.0263 35.1788C14.8556 35.3322 14.5986 35.6182 14.2552 36.0367C14.0328 36.309 13.7864 36.6036 13.5162 36.9205C9.45676 41.6931 7.43619 47.8813 7.10553 54.0847C7.09435 54.2848 7.07861 54.485 7.05829 54.6851C6.99124 55.3525 7.10857 56.1144 7.01105 56.6478C6.97041 56.8723 7.04407 56.9738 7.232 56.9525" stroke="#1B1818" stroke-width="2"/>
<path d="M7.23199 56.9524L7.34628 56.9905" stroke="#918E72" stroke-width="2"/>
<path d="M7.34628 56.9906C7.61904 57.3091 7.88724 55.8722 7.94362 55.7137C8.33676 54.6013 8.69638 53.4127 9.10628 52.3781C10.751 48.2414 13.6132 45.4158 17.693 43.9011C22.176 42.2371 26.9486 41.5209 31.5444 40.2135C32.4018 39.9687 33.5964 39.5547 35.1284 38.9716C38.3517 37.7454 41.311 36.2592 44.0061 34.5129C44.0287 34.4984 44.0475 34.4803 44.061 34.4602C44.0745 34.44 44.0823 34.4184 44.0838 34.3971C44.0869 34.3382 44.0716 34.2864 44.0381 34.2417" stroke="#171C21" stroke-width="2"/>
<path d="M44.0381 34.2415L44.3048 34.051" stroke="#8E2550" stroke-width="2"/>
<path d="M44.3047 34.0511L45.8347 32.9524" stroke="#841B38" stroke-width="2"/>
<path d="M45.8347 32.9525C47.1858 31.9569 48.4206 30.8333 49.539 29.5818" stroke="#611317" stroke-width="2"/>
<path d="M49.5391 29.5819C50.7764 28.3161 51.8527 26.9254 52.768 25.4097" stroke="#763680" stroke-width="2"/>
<path d="M52.768 25.4095C53.279 24.6598 53.7234 23.8725 54.1013 23.0476" stroke="#683681" stroke-width="2"/>
<path d="M54.1013 23.0476C55.4575 20.2265 56.2829 17.2551 56.5775 14.1333" stroke="#5D3682" stroke-width="2"/>
<path d="M56.5775 14.1333L56.7177 12.9905" stroke="#513782" stroke-width="2"/>
<path d="M56.7177 12.9906L56.7284 13.4005C56.7289 13.4149 56.7314 13.4282 56.7355 13.4386C56.7396 13.449 56.7451 13.4559 56.7512 13.4584L56.7878 13.4736C56.7953 13.4765 56.8033 13.476 56.8114 13.4723C56.8194 13.4686 56.8273 13.4617 56.8343 13.4521C56.8414 13.4426 56.8474 13.4307 56.852 13.4172C56.8567 13.4038 56.8597 13.3892 56.861 13.3746C57.0362 11.1986 56.9646 9.11097 56.3246 7.02335C56.2687 6.84252 56.1839 6.78716 56.0701 6.85725" stroke="#1B1818" stroke-width="2"/>
<path d="M56.0701 6.8572L55.9604 6.71701C55.9299 6.67739 55.9167 6.68247 55.9208 6.73225L56.0061 7.73339" stroke="#513782" stroke-width="2"/>
<path d="M56.0701 6.85718C56.6563 8.85845 56.8721 10.9029 56.7177 12.9905" stroke="#482B75" stroke-width="2"/>
<path d="M56.5775 14.1333L56.6004 13.2312C56.6008 13.2212 56.5991 13.2112 56.5957 13.202C56.5922 13.1928 56.587 13.1846 56.5805 13.1783C56.574 13.172 56.5665 13.1676 56.5585 13.1657C56.5506 13.1638 56.5424 13.1643 56.5349 13.1672C56.3657 13.2266 56.4145 14.1211 56.3688 14.3436C56.2418 14.9673 56.1448 15.5956 56.0777 16.2285C56.0361 16.6186 55.8375 17.4288 55.4819 18.659C55.4728 18.6925 55.4545 18.7062 55.4225 18.6879C55.4099 18.6808 55.3995 18.6713 55.3927 18.6607C55.3859 18.6501 55.383 18.6388 55.3844 18.6285C55.424 18.3908 55.3671 18.1836 55.2137 18.0068C55.1957 17.986 55.1824 17.9628 55.1747 17.939C55.1671 17.9152 55.1653 17.8915 55.1695 17.8697C55.2046 17.6792 54.9532 15.4026 54.4381 16.3367" stroke="#8A49E0" stroke-width="2"/>
<path d="M54.4381 16.3368C55.6318 13.594 56.1544 10.7262 56.0061 7.7334" stroke="#5C36BD" stroke-width="2"/>
<path d="M54.1013 23.0478C54.0851 22.9818 54.0531 22.9477 54.0053 22.9457C53.9884 22.9443 53.9686 22.9523 53.9487 22.9687C53.9288 22.985 53.9097 23.0089 53.8941 23.0371L53.0514 24.5503C53.0189 24.6082 52.9966 24.6016 52.9844 24.5305C52.7518 23.1509 52.5384 21.7678 52.3444 20.3811C52.3352 20.312 52.2743 20.1962 52.1615 20.0337" stroke="#A048DF" stroke-width="2"/>
<path d="M54.4381 16.3369C53.8205 17.6616 53.0616 18.8939 52.1615 20.0337" stroke="#6735BD" stroke-width="2"/>
<path d="M52.1615 20.0337L51.0095 21.3274" stroke="#7235BC" stroke-width="2"/>
<path d="M51.0095 21.3274L50.7109 21.6002" stroke="#7935BC" stroke-width="2"/>
<path d="M50.7109 21.6001C50.7678 21.3949 50.8241 21.1902 50.88 20.986C51.0751 20.2729 51.5825 19.7456 51.7989 19.0188C52.0427 18.202 52.3307 17.5635 52.2834 16.6096C52.2822 16.5838 52.2736 16.5595 52.2594 16.541C52.2451 16.5225 52.2261 16.5112 52.2057 16.5091C52.1742 16.506 52.1438 16.5121 52.1143 16.5273" stroke="#432AA5" stroke-width="2"/>
<path d="M52.768 25.4096C52.77 25.3283 52.7451 25.2872 52.6933 25.2861C52.6754 25.286 52.6552 25.2935 52.6349 25.308C52.6145 25.3225 52.5947 25.3433 52.5775 25.3684L51.4621 27.0187" stroke="#B948DD" stroke-width="2"/>
<path d="M51.4621 27.0188C51.6094 25.5549 51.5754 24.0956 51.36 22.6409C51.3097 22.3042 51.331 21.7891 51.1802 21.3731C51.1749 21.3575 51.1626 21.3446 51.1455 21.3367C51.1284 21.3289 51.1077 21.3267 51.0872 21.3304C51.0618 21.3355 51.0359 21.3345 51.0095 21.3274" stroke="#B248DE" stroke-width="2"/>
<path d="M50.7109 21.6001L49.9048 22.3559" stroke="#833DC6" stroke-width="2"/>
<path d="M49.9048 22.356L48.1524 23.6893" stroke="#8A3DC6" stroke-width="2"/>
<path d="M48.1524 23.6892C46.9963 24.4623 45.7793 25.1246 44.5013 25.6763" stroke="#933EC5" stroke-width="2"/>
<path d="M44.5013 25.6762L44.477 25.5528C44.4723 25.5319 44.475 25.5103 44.4846 25.4918C44.4941 25.4733 44.5098 25.4592 44.5288 25.4522C45.2983 25.1688 45.7219 24.7116 46.3848 24.3093C46.8678 24.0168 47.1147 23.7044 47.6602 23.357C48.4851 22.8297 49.2287 22.0851 49.8911 21.123" stroke="#4D3CB9" stroke-width="2"/>
<path d="M49.8911 21.123C50.5534 20.1711 51.0618 18.9851 51.4164 17.5649C51.4204 17.5481 51.42 17.5305 51.4152 17.5137C51.4104 17.4969 51.4013 17.4813 51.3886 17.4682C51.376 17.4551 51.3602 17.4449 51.3425 17.4384C51.3248 17.4319 51.3058 17.4293 51.2869 17.4308L51.1619 17.4415" stroke="#5740BB" stroke-width="2"/>
<path d="M51.4621 27.0188L50.0983 28.7301C49.9175 28.9566 49.8327 28.9246 49.8438 28.6341C49.8733 27.8671 49.9276 27.0112 50.0069 26.0664C50.0536 25.5036 49.9805 24.4974 49.7874 23.0478C49.7816 23.0016 49.7941 22.9537 49.8225 22.9137C49.9464 22.7369 49.9739 22.551 49.9048 22.356" stroke="#C048DD" stroke-width="2"/>
<path d="M49.539 29.5818L48.4952 30.2157" stroke="#B32573" stroke-width="2"/>
<path d="M48.4952 30.2156C48.4485 30.177 48.3977 30.1521 48.3429 30.141C48.3304 30.1382 48.3117 30.1408 48.2887 30.1486C48.2657 30.1563 48.2392 30.1689 48.2118 30.1852L47.8598 30.3939" stroke="#D54EDB" stroke-width="2"/>
<path d="M47.8598 30.394C48 29.9673 47.8339 29.6184 47.8842 29.2374C48.0107 28.2759 48.3748 24.9189 47.8202 24.3597C47.8058 24.345 47.7974 24.3254 47.7969 24.305C47.7963 24.2846 47.8036 24.2649 47.8171 24.25C47.8872 24.1753 48.4145 23.7837 48.1524 23.6892" stroke="#D149DC" stroke-width="2"/>
<path d="M47.8598 30.3939C46.6758 31.1192 45.6686 31.6602 44.3977 32.0792C44.3896 32.0819 44.381 32.0826 44.3725 32.0813C44.3641 32.0799 44.3561 32.0766 44.3492 32.0715C44.3424 32.0664 44.3368 32.0597 44.3331 32.0521C44.3293 32.0444 44.3274 32.0359 44.3276 32.0274C44.3322 31.4087 43.9406 31.3478 43.5688 31.0537C43.5617 31.0476 43.5424 31.0065 43.5109 30.9303L43.3631 30.5859C43.3575 30.573 43.3443 30.5601 43.3247 30.5486C43.3051 30.537 43.2799 30.5273 43.2518 30.5204C43.0141 30.4655 42.8038 30.4167 42.6225 30.2339C42.0312 29.6386 41.4578 29.0275 40.9021 28.4007C40.7116 28.1859 40.6309 27.8766 40.5029 27.6221C40.4928 27.6024 40.4886 27.5801 40.4907 27.5578C40.4929 27.5354 40.5013 27.5139 40.5151 27.4956C40.6542 27.3036 40.5968 27.1817 40.3429 27.1299" stroke="#DF4FDA" stroke-width="2"/>
<path d="M44.5013 25.6763C43.1543 26.2716 41.7681 26.7561 40.3429 27.13" stroke="#9448CF" stroke-width="2"/>
<path d="M40.3429 27.1299L40.1524 27.168" stroke="#994DCE" stroke-width="2"/>
<path d="M40.1524 27.1681C40.1381 27.1295 40.1351 27.0691 40.1432 26.9868" stroke="#535BCD" stroke-width="2"/>
<path d="M49.8911 21.123L49.5132 21.4262C49.4654 21.4648 49.4446 21.4593 49.4507 21.4095C49.4547 21.3739 49.4746 21.3404 49.5101 21.3089C49.6991 21.1423 49.8093 20.9376 49.8408 20.6948C49.854 20.5942 49.8377 20.5917 49.792 20.6872L49.6671 20.9432C49.6464 20.9875 49.6092 21.0241 49.5619 21.0468C49.4034 21.125 49.2958 21.2469 49.2389 21.4125C49.2206 21.4654 49.1957 21.5075 49.1642 21.539C48.1717 22.5142 47.3519 23.2081 46.7048 23.6205C45.8829 24.1437 45.249 24.6069 44.8031 25.0102C44.67 25.1301 44.513 25.2327 44.3322 25.3181C43.8781 25.5314 43.5429 25.8468 43.1025 26.0129C42.1293 26.3786 41.1429 26.7032 40.1432 26.9866" stroke="#584AC4" stroke-width="2"/>
<path d="M40.1432 26.9867C40.0376 26.9471 39.9264 26.9374 39.8095 26.9578C39.5119 27.0086 39.4753 26.9156 39.6998 26.6789C39.7801 26.5946 39.7811 26.5245 39.7029 26.4686C39.6924 26.4611 39.6829 26.452 39.6752 26.4421C39.6675 26.4323 39.6618 26.4219 39.6584 26.4118C39.655 26.4016 39.6541 26.392 39.6557 26.3836C39.6574 26.3753 39.6615 26.3684 39.6678 26.3635L40.3459 25.7905" stroke="#5C5FCF" stroke-width="2"/>
<path d="M40.3459 25.7906C40.9402 26.0517 41.4619 26.1035 41.9109 25.946C42.5499 25.7225 43.297 25.2791 44.1524 24.6157" stroke="#6855CB" stroke-width="2"/>
<path d="M44.1524 24.6156C44.675 24.5135 43.4087 25.2221 44.2651 24.8427C44.2689 24.841 44.273 24.8402 44.2771 24.8403C44.2813 24.8404 44.2853 24.8415 44.289 24.8434C44.2926 24.8453 44.2958 24.848 44.2983 24.8513C44.3007 24.8546 44.3024 24.8584 44.3032 24.8625C44.3246 24.9753 44.3687 24.8503 44.3794 24.8396C44.6263 24.6344 45.1103 24.2535 45.8316 23.6968C46.3649 23.2843 46.9496 22.7576 47.5855 22.1166C47.5927 22.1095 47.6022 22.104 47.6132 22.1006C47.6243 22.0971 47.6367 22.0958 47.6495 22.0968C47.6998 22.1013 47.7135 22.0968 47.747 22.0587C48.4937 21.1764 49.1444 20.5806 49.2343 19.6922C49.2351 19.6827 49.238 19.6738 49.2422 19.6673C49.2464 19.6608 49.2518 19.6572 49.2571 19.6572L49.2952 19.6587C49.2987 19.6585 49.302 19.6565 49.305 19.653C49.3079 19.6495 49.3103 19.6444 49.3122 19.6381C49.3141 19.6319 49.3153 19.6245 49.3157 19.6165C49.3162 19.6085 49.316 19.6001 49.315 19.5916C49.2937 19.426 49.3399 19.2854 49.4537 19.1695C49.4724 19.1508 49.4865 19.1291 49.4948 19.1065C49.503 19.0838 49.5052 19.061 49.5009 19.04L49.4796 18.9333" stroke="#674EC7" stroke-width="2"/>
<path d="M49.4796 18.9333C49.6147 18.848 49.7295 18.722 49.824 18.5554" stroke="#3D3468" stroke-width="2"/>
<path d="M45.8347 32.9523C45.7758 32.8904 45.7021 32.864 45.6137 32.8731C45.594 32.875 45.5731 32.8825 45.5524 32.8951C45.5317 32.9077 45.5116 32.9251 45.4933 32.9462C45.085 33.4247 44.7116 33.1794 44.2255 33.3805C44.1776 33.3995 44.1271 33.4058 44.0793 33.3988C43.678 33.3368 43.2991 33.3683 42.9425 33.4933C42.783 33.5492 42.6357 33.5436 42.5006 33.4765C42.4544 33.453 42.4057 33.4454 42.3634 33.4552C41.7976 33.5944 41.2368 33.7544 40.6812 33.9352C40.4841 34.0002 40.3967 33.9413 40.4191 33.7584" stroke="#C10A2A" stroke-width="2"/>
<path d="M48.4952 30.2156C46.6606 31.3696 44.7213 32.293 42.6773 32.9859" stroke="#C12B71" stroke-width="2"/>
<path d="M42.6774 32.986C42.3208 32.924 42.2801 32.8392 42.5554 32.7315C42.5634 32.7282 42.5704 32.7231 42.5761 32.7167C42.5817 32.7103 42.5858 32.7027 42.5879 32.6947C42.5899 32.6866 42.59 32.6782 42.5881 32.6703C42.5862 32.6624 42.5823 32.6552 42.5768 32.6492C42.4335 32.5009 42.1826 32.2866 41.824 32.0062C41.2328 31.5419 40.3459 30.6373 39.1634 29.2923C38.8282 28.9113 38.6652 28.3871 38.1562 28.0351C38.1408 28.0247 38.1302 28.0082 38.1265 27.9887C38.1228 27.9693 38.1264 27.9483 38.1364 27.93C38.1811 27.8477 38.1801 27.7715 38.1333 27.7014" stroke="#E559D8" stroke-width="2"/>
<path d="M40.1524 27.168L38.1333 27.7013" stroke="#9D62D9" stroke-width="2"/>
<path d="M38.1333 27.7014L37.2191 27.9178" stroke="#9F67D7" stroke-width="2"/>
<path d="M37.219 27.9177C37.217 27.8415 37.1952 27.7735 37.1535 27.7135C37.1388 27.693 37.119 27.6773 37.0969 27.6686C37.0748 27.6598 37.0514 27.6585 37.0301 27.6648L35.3493 28.1387C35.3247 28.1455 35.2988 28.146 35.2739 28.1401C35.249 28.1342 35.2261 28.1221 35.2072 28.1049C35.1883 28.0876 35.1741 28.0659 35.1659 28.0417C35.1577 28.0175 35.1558 27.9916 35.1604 27.9665C35.2132 27.6881 35.3315 27.4489 35.5154 27.2488C35.5224 27.2411 35.5277 27.2321 35.531 27.2223C35.5344 27.2125 35.5356 27.2021 35.5348 27.1917C35.5339 27.1812 35.5309 27.1711 35.526 27.1618C35.5211 27.1525 35.5144 27.1442 35.5063 27.1375C35.4677 27.106 35.4651 27.0634 35.4987 27.0095" stroke="#4786E1" stroke-width="2"/>
<path d="M35.4987 27.0096L35.6571 26.9014" stroke="#2E6ED8" stroke-width="2"/>
<path d="M35.6571 26.9015C36.9016 26.3306 38.1044 25.6733 39.2655 24.9297" stroke="#2D66CD" stroke-width="2"/>
<path d="M39.2655 24.9296C39.7521 24.7285 40.191 24.443 40.5821 24.0732" stroke="#2E6ED8" stroke-width="2"/>
<path d="M49.4796 18.9333L48.381 19.8034" stroke="#433569" stroke-width="2"/>
<path d="M48.381 19.8035L47.1238 20.6797" stroke="#443C6D" stroke-width="2"/>
<path d="M47.1238 20.6797C45.0982 21.9688 42.9775 23.0777 40.7619 24.0062" stroke="#4B4480" stroke-width="2"/>
<path d="M40.7619 24.0061L40.5821 24.0732" stroke="#384671" stroke-width="2"/>
<path d="M40.5821 24.0732C38.6438 24.8758 36.6847 25.6026 34.7048 26.2538" stroke="#0F4371" stroke-width="2"/>
<path d="M34.7048 26.2537L34.1333 26.406" stroke="#15547A" stroke-width="2"/>
<path d="M44.1524 24.6157C44.2682 24.3708 44.4292 24.1865 44.6354 24.0625C45.1947 23.7242 45.6442 23.2732 46.1303 22.9242C46.8505 22.4082 47.4443 21.7697 47.9116 21.0088C48.099 20.704 48.0122 20.3322 48.4145 20.1052C48.4387 20.0914 48.4594 20.0744 48.4749 20.0554C48.4905 20.0364 48.5006 20.0159 48.5044 19.9955C48.5227 19.8969 48.4815 19.8329 48.3809 19.8035" stroke="#6E56CC" stroke-width="2"/>
<path d="M40.3459 25.7905C40.3581 25.6483 40.4363 25.5457 40.5806 25.4827C40.583 25.4815 40.5858 25.4811 40.5885 25.4815C40.5913 25.4819 40.5939 25.4832 40.5963 25.4851C40.5987 25.4871 40.6008 25.4897 40.6023 25.4927C40.6038 25.4957 40.6047 25.4991 40.605 25.5025L40.608 25.5315C40.6111 25.566 40.6324 25.5635 40.672 25.5239C40.8488 25.3425 40.8503 25.114 40.9798 24.9387C41.1464 24.7122 41.3435 24.5136 41.5711 24.3429C41.6148 24.3102 41.6466 24.2698 41.6625 24.2271L41.8286 23.7776" stroke="#6367D4" stroke-width="2"/>
<path d="M41.8286 23.7776C43.6551 22.9192 45.4222 21.9536 47.1299 20.8808C47.2589 20.8006 47.2569 20.7335 47.1238 20.6797" stroke="#7665E3" stroke-width="2"/>
<path d="M44.3048 34.051C44.3505 33.8509 44.2906 33.7945 44.125 33.8819C43.8156 34.0449 43.1741 34.5843 42.653 34.6118C41.1972 34.6869 39.7394 34.7484 38.2796 34.7962" stroke="#EE1C64" stroke-width="2"/>
<path d="M38.2796 34.7961C37.0545 34.849 35.8501 35.0471 34.6667 35.3904C34.2562 35.5103 34.0322 35.5702 33.9947 35.5702L33.408 35.5657C33.347 35.5657 33.3018 35.5728 33.2724 35.587C32.8427 35.7927 32.3627 35.7211 31.9863 35.7912C31.0217 35.9725 30.0571 36.0975 29.0926 36.2788C29.0652 36.2843 29.0381 36.2839 29.0144 36.2777C28.9906 36.2716 28.9713 36.2598 28.9585 36.2438C28.9321 36.2113 28.9173 36.1701 28.9143 36.1203" stroke="#EF2D61" stroke-width="2"/>
<path d="M41.0667 33.53L40.4191 33.7586" stroke="#C5356F" stroke-width="2"/>
<path d="M40.4191 33.7585L39.3798 34.0328" stroke="#E73D90" stroke-width="2"/>
<path d="M39.3798 34.0329C39.2224 33.6052 38.9674 33.2481 38.6149 32.9617C38.4493 32.8276 38.303 32.6742 38.176 32.5015C37.5665 31.671 36.6126 30.9091 35.8522 30.2051C35.7933 30.1502 35.7105 30.0182 35.6038 29.8089C35.4499 29.5026 35.1589 29.3411 34.9714 29.0363C34.9602 29.0184 34.9551 28.9968 34.9567 28.9745C34.9584 28.9523 34.9667 28.9303 34.9806 28.9114C35.0954 28.7539 35.0796 28.6173 34.9333 28.5015" stroke="#ED71D2" stroke-width="2"/>
<path d="M42.6773 32.9861L41.0667 33.5301" stroke="#C33070" stroke-width="2"/>
<path d="M41.0667 33.53C41.1144 33.2903 41.0113 33.1613 40.7573 33.143C40.7553 33.143 40.7223 33.1267 40.6583 33.0942C40.6146 33.0719 40.6075 33.047 40.637 33.0196C40.6435 33.0131 40.6483 33.0052 40.6511 32.9962C40.6538 32.9873 40.6544 32.9776 40.6528 32.9679C40.6512 32.9581 40.6474 32.9485 40.6418 32.9398C40.6362 32.9311 40.6288 32.9235 40.6202 32.9175C39.2244 31.9056 37.696 30.2691 36.7192 29.0348C36.5323 28.7971 36.4292 28.4974 36.4099 28.1357" stroke="#E963D5" stroke-width="2"/>
<path d="M39.2655 24.9297C38.2812 25.204 37.3171 25.5412 36.3733 25.9415C36.3289 25.9603 36.2918 25.9947 36.2682 26.039C36.1981 26.167 35.392 26.9198 35.6572 26.9015" stroke="#0364CD" stroke-width="2"/>
<path d="M35.4987 27.0095L32.5958 28.3048" stroke="#1D83E1" stroke-width="2"/>
<path d="M32.5958 28.3047C32.5948 27.7897 32.8193 27.4001 33.2694 27.1359C33.3415 27.0933 33.3725 27.0384 33.3623 26.9714C33.3592 26.9497 33.3623 26.9281 33.3712 26.9101C33.38 26.8921 33.3941 26.8788 33.4111 26.8723C33.7463 26.7428 34.2339 26.5203 34.5844 26.5081C34.8587 26.498 34.8988 26.4132 34.7048 26.2537" stroke="#0B7CE1" stroke-width="2"/>
<path d="M41.8286 23.7776L40.6812 24.2043C40.6456 24.2175 40.6385 24.2063 40.6598 24.1707L40.7619 24.0062" stroke="#6A6EE7" stroke-width="2"/>
<path d="M37.2191 27.9177L36.4099 28.1356" stroke="#8F7DE0" stroke-width="2"/>
<path d="M36.4099 28.1357L34.9333 28.5015" stroke="#9182DF" stroke-width="2"/>
<path d="M34.9333 28.5015L31.581 29.4158" stroke="#938BDD" stroke-width="2"/>
<path d="M31.581 29.4158L29.6686 29.9796" stroke="#9594DB" stroke-width="2"/>
<path d="M29.6686 29.9795L28 30.5083" stroke="#969CD9" stroke-width="2"/>
<path d="M28 30.5082C27.9858 30.3721 27.8969 30.3086 27.7333 30.3178" stroke="#22B2F4" stroke-width="2"/>
<path d="M27.7333 30.3178L29.2191 29.7083" stroke="#2EA0E4" stroke-width="2"/>
<path d="M32.5958 28.3049L29.2191 29.7084" stroke="#2494E9" stroke-width="2"/>
<path d="M29.2191 29.7083C29.1505 29.2695 29.1566 28.535 28.8488 28.212C28.8333 28.1966 28.8211 28.177 28.8127 28.1545C28.8043 28.132 28.8 28.107 28.8 28.0809C28.798 27.957 28.7345 27.9153 28.6095 27.956" stroke="#1C99E4" stroke-width="2"/>
<path d="M28.6095 27.9559L28.6415 27.7715" stroke="#1FAFEB" stroke-width="2"/>
<path d="M28.6415 27.7716L30.6286 27.2322" stroke="#124C7A" stroke-width="2"/>
<path d="M38.3177 35.3616C37.4136 35.4205 36.51 35.5226 35.6069 35.6679C35.2046 35.7319 34.6103 35.7639 34.1212 35.8919C33.8103 35.9741 33.5248 36.0199 33.2648 36.029C32.4846 36.058 31.9238 36.314 31.1741 36.317C30.7708 36.318 30.3594 36.4201 29.9398 36.6233" stroke="#FC4F8C" stroke-width="2"/>
<path d="M29.9398 36.6234C27.9543 36.5168 26.5554 36.8108 24.6385 37.4737C24.5242 37.5118 24.2682 37.4798 24.4953 37.3015" stroke="#FD6085" stroke-width="2"/>
<path d="M39.3798 34.0327L36.9661 34.6255" stroke="#E9468E" stroke-width="2"/>
<path d="M36.9661 34.6257C36.9336 34.4763 36.8396 34.4098 36.6842 34.4261C36.6589 34.4284 36.6341 34.4261 36.6114 34.4193C36.5888 34.4124 36.569 34.4012 36.5532 34.3864C35.6643 33.5473 34.7942 32.6884 33.9429 31.8097C33.3288 31.1758 32.7208 30.548 31.9985 30.0329C31.7902 29.8846 31.6511 29.6789 31.581 29.4158" stroke="#F284CE" stroke-width="2"/>
<path d="M32.0061 35.543L30.1486 35.8401" stroke="#EF6687" stroke-width="2"/>
<path d="M30.1486 35.84C30.0175 35.7221 29.8738 35.6394 29.7173 35.5916C29.502 35.5256 29.3542 35.4677 29.2739 35.4179C27.8497 34.527 26.8185 33.9312 26.1806 33.6305C25.4105 33.2668 24.3337 32.9148 22.9501 32.5745" stroke="#FABFC0" stroke-width="2"/>
<path d="M30.1486 35.8401L28.9143 36.1205" stroke="#EF6C85" stroke-width="2"/>
<path d="M28.9143 36.1204L27.4347 36.419" stroke="#FB879A" stroke-width="2"/>
<path d="M27.4347 36.4191C27.4641 36.3713 27.4657 36.3216 27.4392 36.2697C27.4296 36.2521 27.414 36.236 27.3935 36.2226C27.3729 36.2092 27.3479 36.1987 27.3204 36.192C26.6143 36.0315 25.8143 35.7141 24.9204 35.2397C23.9258 34.7124 22.6804 34.3264 21.184 34.0816C20.8538 34.0277 20.7771 33.851 20.9539 33.5513" stroke="#FBCCBD" stroke-width="2"/>
<path d="M35.3143 34.9653L32.9753 35.3874" stroke="#ED588A" stroke-width="2"/>
<path d="M32.9753 35.3874C32.8594 35.1751 32.7634 35.0354 32.6873 34.9684C31.4306 33.8509 30.1384 32.8584 28.8107 31.9908C28.0996 31.5256 27.3087 31.2218 26.4381 31.0796" stroke="#F7A5C6" stroke-width="2"/>
<path d="M26.4381 31.0797L28 30.5083" stroke="#82B3E3" stroke-width="2"/>
<path d="M44.0381 34.2417L41.8682 35.5705" stroke="#811C4D" stroke-width="2"/>
<path d="M41.8682 35.5703L40.9966 35.709C40.98 35.7118 40.9628 35.7078 40.9484 35.6976C40.934 35.6875 40.9234 35.6719 40.9189 35.6541C40.8945 35.5581 40.7695 35.5185 40.672 35.5322C39.8725 35.645 39.0878 35.5881 38.3177 35.3616" stroke="#FA3D8F" stroke-width="2"/>
<path d="M38.3177 35.3615L39.6907 34.9851C39.7425 34.9709 39.7405 34.9607 39.6846 34.9546L38.2796 34.7961" stroke="#FA3779" stroke-width="2"/>
<path d="M32.9752 35.3875L32.0061 35.5429" stroke="#EE6088" stroke-width="2"/>
<path d="M32.0061 35.543C32.2255 35.4485 32.2327 35.4094 32.0274 35.4257C32.0146 35.4266 32.0006 35.4239 31.9864 35.4176C31.9721 35.4112 31.9581 35.4015 31.9452 35.3891C31.8446 35.2926 31.7227 35.2423 31.5794 35.2382C31.4941 35.2362 31.4494 35.2342 31.4454 35.2322C30.7322 34.7948 30.0831 34.2295 29.4034 33.8181C28.7391 33.4173 28.0351 32.916 27.4057 32.6005C26.6093 32.2033 25.7783 31.8904 24.9128 31.6619" stroke="#F9B3C3" stroke-width="2"/>
<path d="M36.9661 34.6255L35.3143 34.9653" stroke="#EC508C" stroke-width="2"/>
<path d="M35.3143 34.9654C35.7852 34.8633 35.5337 34.8496 35.3996 34.746C34.5874 34.1197 33.9977 33.3669 33.1657 32.6858C32.1935 31.8888 31.4728 30.97 30.3391 30.3574C30.1156 30.2355 29.8921 30.1095 29.6686 29.9795" stroke="#F595CA" stroke-width="2"/>
<path d="M26.4381 31.0796L24.9128 31.6617" stroke="#83BBE1" stroke-width="2"/>
<path d="M24.9128 31.6619L22.9501 32.5746" stroke="#84C1E0" stroke-width="2"/>
<path d="M22.9501 32.5745C22.2735 32.8416 21.6081 33.1672 20.9539 33.5512" stroke="#84C7DE" stroke-width="2"/>
<path d="M20.9539 33.5513L20.4267 33.7631" stroke="#84CEDD" stroke-width="2"/>
<path d="M20.4267 33.7632C21.1195 33.2157 21.8662 32.757 22.6667 32.3872" stroke="#24C5DA" stroke-width="2"/>
<path d="M27.7333 30.3179C26.5234 30.7334 25.3344 31.1956 24.1661 31.7045" stroke="#1AB7EF" stroke-width="2"/>
<path d="M24.1661 31.7045C24.034 31.2514 24.0162 30.8024 24.1128 30.3575C24.1179 30.3355 24.1173 30.3121 24.1109 30.2895C24.1046 30.267 24.0926 30.2458 24.0762 30.2279C23.9065 30.0431 23.8898 29.8439 24.0259 29.6306" stroke="#2DADD8" stroke-width="2"/>
<path d="M28.6415 27.7715C24.5974 28.8427 20.8351 30.7658 17.5177 33.2953" stroke="#206E7C" stroke-width="2"/>
<path d="M17.5177 33.2954L16.2225 34.4002" stroke="#266661" stroke-width="2"/>
<path d="M16.2225 34.4001C15.2736 35.2311 14.3975 36.1327 13.5939 37.1049" stroke="#2E7646" stroke-width="2"/>
<path d="M13.5939 37.1047L12.6476 38.3177" stroke="#447F47" stroke-width="2"/>
<path d="M12.6476 38.3179L12.381 38.6988" stroke="#55814F" stroke-width="2"/>
<path d="M12.381 38.6987L11.6953 39.7273" stroke="#608357" stroke-width="2"/>
<path d="M11.6952 39.7273C9.89308 42.5677 8.67606 45.6427 8.04419 48.9524" stroke="#738566" stroke-width="2"/>
<path d="M8.0442 48.9524C7.68356 50.5453 7.46769 52.158 7.39658 53.7905" stroke="#7D8557" stroke-width="2"/>
<path d="M7.39657 53.7905L7.23199 56.9524" stroke="#888166" stroke-width="2"/>
<path d="M28.6095 27.9558C27.0431 28.4038 25.5152 28.962 24.0259 29.6305" stroke="#2ABBE6" stroke-width="2"/>
<path d="M24.0259 29.6306L22.1333 30.5845" stroke="#30C3DF" stroke-width="2"/>
<path d="M22.1334 30.5845C20.574 31.3636 19.105 32.2866 17.7265 33.3532C17.7031 33.3715 17.6783 33.3849 17.6547 33.3919C17.631 33.3989 17.6095 33.3992 17.5924 33.3929C17.5528 33.3796 17.5279 33.3471 17.5177 33.2953" stroke="#34C9D1" stroke-width="2"/>
<path d="M33.0286 39.0156L30.5844 39.2564" stroke="#FE614B" stroke-width="2"/>
<path d="M30.5844 39.2565C30.1902 38.3809 29.5202 37.8404 28.5745 37.6352C28.5403 37.6281 28.5082 37.6247 28.4811 37.6253C28.454 37.6258 28.4327 37.6303 28.419 37.6382L28.2301 37.7556C28.2075 37.7695 28.1825 37.7788 28.1565 37.7827C28.1306 37.7866 28.1043 37.7852 28.0792 37.7784C27.4529 37.6047 26.8038 37.748 26.339 37.748C25.5751 37.75 24.8117 37.7439 24.0488 37.7297C24.0412 37.7296 24.0338 37.7276 24.0272 37.7238C24.0205 37.72 24.0149 37.7144 24.0106 37.7076C24.0063 37.7008 24.0035 37.693 24.0025 37.6846C24.0014 37.6763 24.0022 37.6677 24.0046 37.6596L24.0762 37.4158" stroke="#FF8790" stroke-width="2"/>
<path d="M27.4347 36.4192L24.4952 37.3015" stroke="#FB8E99" stroke-width="2"/>
<path d="M24.4952 37.3015L24.3871 37.2954" stroke="#FDA5A8" stroke-width="2"/>
<path d="M24.387 37.2953C24.3698 37.1765 24.3063 37.1394 24.1966 37.1841C23.6226 37.4177 23.0867 37.5777 22.589 37.6641C22.5497 37.671 22.4965 37.6601 22.4396 37.6336C22.3228 37.5808 22.2039 37.5788 22.083 37.6275C22.0655 37.6346 22.0443 37.6346 22.0223 37.6276C22.0003 37.6205 21.9785 37.6067 21.9596 37.5879C21.6356 37.2638 21.247 37.0602 20.7939 36.9769C20.5704 36.9758 20.3916 36.8392 20.2575 36.5669C20.2251 36.5013 20.1729 36.4475 20.1083 36.4133C20.0438 36.379 19.9701 36.3662 19.8979 36.3765C19.2229 36.4709 18.7352 35.9925 18.1181 35.8081C18.1096 35.8054 18.1017 35.8008 18.0951 35.7947C18.0885 35.7886 18.0833 35.7811 18.0798 35.7727C18.0764 35.7644 18.0747 35.7553 18.075 35.7461C18.0753 35.737 18.0775 35.728 18.0815 35.7197C18.1506 35.5734 18.1013 35.4789 17.9337 35.4363" stroke="#FCD9BC" stroke-width="2"/>
<path d="M34.7048 38.8633L33.0286 39.0157" stroke="#FD5052" stroke-width="2"/>
<path d="M33.0286 39.0157C32.8914 38.8623 32.7147 38.8059 32.4983 38.8465C32.4272 38.8597 32.4043 38.8415 32.4297 38.7917L32.509 38.6393C32.5216 38.6153 32.5265 38.5875 32.523 38.5596C32.5194 38.5317 32.5077 38.5048 32.4892 38.4823L31.8796 37.7204C31.838 37.6686 31.8146 37.628 31.8095 37.5985C31.7872 37.4583 31.6566 37.3715 31.4179 37.338C31.3953 37.3348 31.3735 37.3272 31.3539 37.3154C31.3344 37.3036 31.3174 37.288 31.304 37.2695C31.2906 37.251 31.2811 37.23 31.2761 37.2077C31.271 37.1854 31.2706 37.1623 31.2747 37.1399C31.2859 37.0769 31.2178 37.0347 31.0705 37.0134C30.6794 36.9575 30.3025 36.8275 29.9398 36.6233" stroke="#FD669B" stroke-width="2"/>
<path d="M7.34628 56.9905L7.61295 56" stroke="#84856F" stroke-width="2"/>
<path d="M7.61295 56C8.10768 54.335 8.70856 52.7096 9.41561 51.1238" stroke="#857B17" stroke-width="2"/>
<path d="M9.41562 51.1238C11.0177 47.87 13.4684 45.4954 16.768 44" stroke="#857B3A" stroke-width="2"/>
<path d="M16.768 43.9999C18.5996 43.2685 20.479 42.6697 22.4061 42.2034" stroke="#856617" stroke-width="2"/>
<path d="M22.4061 42.2035L24.1905 41.7844" stroke="#854F12" stroke-width="2"/>
<path d="M24.1905 41.7844C26.2639 41.378 28.321 40.8904 30.3619 40.3215" stroke="#853F11" stroke-width="2"/>
<path d="M30.3619 40.3216C31.84 39.9365 33.2876 39.4505 34.7048 38.8633" stroke="#842F10" stroke-width="2"/>
<path d="M34.7048 38.8633C37.1947 37.9937 39.5825 36.896 41.8682 35.5703" stroke="#833460" stroke-width="2"/>
<path d="M20.4267 33.7632L17.9337 35.4363" stroke="#9BCAB9" stroke-width="2"/>
<path d="M17.9337 35.4363L17.2571 35.93" stroke="#9BD0B9" stroke-width="2"/>
<path d="M17.2571 35.9301C17.2612 35.8 17.2104 35.6837 17.1048 35.5811C16.8274 35.3129 16.5333 34.9193 16.2225 34.4001" stroke="#42D19C" stroke-width="2"/>
<path d="M24.1661 31.7043L22.6667 32.387" stroke="#20BFE8" stroke-width="2"/>
<path d="M22.6667 32.3872C22.755 32.1891 22.6783 32.1286 22.4366 32.2058C22.4144 32.2131 22.3911 32.212 22.3685 32.2027C22.3459 32.1933 22.3246 32.176 22.3064 32.1522C22.2881 32.1283 22.2735 32.0985 22.2635 32.0652C22.2536 32.0319 22.2487 31.9961 22.2491 31.9605L22.2705 30.7049C22.271 30.6789 22.2651 30.654 22.2537 30.6335C22.2422 30.6131 22.2257 30.5981 22.2065 30.5906C22.1811 30.5815 22.1567 30.5794 22.1333 30.5845" stroke="#37BBC4" stroke-width="2"/>
<path d="M14.9714 37.9749L13.9931 38.9729" stroke="#BAEFA8" stroke-width="2"/>
<path d="M13.9931 38.9731C13.9368 37.9781 13.2206 38.8116 12.7467 38.6333C12.7385 38.6301 12.7312 38.6249 12.7252 38.6181C12.7192 38.6113 12.7148 38.603 12.7121 38.5937C12.7093 38.5844 12.7084 38.5743 12.7094 38.5641C12.7104 38.5539 12.7132 38.5437 12.7177 38.5343C12.7583 38.4418 12.735 38.3697 12.6476 38.3179" stroke="#87F48A" stroke-width="2"/>
<path d="M13.6762 39.3494C13.2668 39.1137 12.8371 39.0761 12.3871 39.2366C12.3778 39.2401 12.3679 39.2416 12.3581 39.2411C12.3484 39.2405 12.339 39.2379 12.3308 39.2335C12.3226 39.229 12.3159 39.2228 12.3111 39.2154C12.3063 39.208 12.3036 39.1996 12.3032 39.1909C12.3002 38.9867 12.6583 38.8054 12.381 38.6987" stroke="#A3F99A" stroke-width="2"/>
<path d="M9.40952 50.1775C8.56228 52.0193 7.96495 53.7569 7.61752 55.3904C7.58907 55.5225 7.55504 55.621 7.51542 55.6861C7.50516 55.7028 7.49964 55.7226 7.49937 55.7434C7.4991 55.7642 7.5041 55.7854 7.5139 55.8049L7.61295 56" stroke="#FFED69" stroke-width="2"/>
<path d="M17.2571 35.9299L15.3173 37.6168" stroke="#A3DF9F" stroke-width="2"/>
<path d="M15.3173 37.6167C15.0116 37.4268 14.687 37.3496 14.3436 37.3851C13.9718 37.4247 13.824 37.3775 13.5939 37.1047" stroke="#60E982" stroke-width="2"/>
<path d="M12.6796 40.6477C10.7251 43.3895 9.34502 46.3991 8.53943 49.6763" stroke="#EAFBD1" stroke-width="2"/>
<path d="M8.53943 49.6763C8.30984 49.4864 8.20114 49.2482 8.21333 48.9617C8.21383 48.9536 8.21231 48.9455 8.20889 48.9381C8.20548 48.9308 8.20028 48.9244 8.19377 48.9196C8.18727 48.9147 8.17966 48.9116 8.17163 48.9104C8.16361 48.9093 8.15542 48.9101 8.14781 48.9129L8.04419 48.9525" stroke="#DEFEB2" stroke-width="2"/>
<path d="M8.41296 50.1333C8.096 51.2538 7.88166 52.3936 7.76991 53.5527C7.76699 53.5787 7.75981 53.6032 7.74881 53.6246C7.73781 53.6461 7.72321 53.6642 7.70591 53.6777C7.61651 53.7457 7.5134 53.7833 7.39658 53.7904" stroke="#F3FBB1" stroke-width="2"/>
<path d="M12.7619 40.4633C12.4831 40.3993 12.9966 40.029 12.5471 39.8568C12.5296 39.85 12.5089 39.85 12.4877 39.8568C12.4665 39.8636 12.4458 39.8769 12.4282 39.8949C12.3673 39.9569 12.32 39.967 12.2865 39.9254C12.2706 39.9061 12.2541 39.8892 12.2401 39.878C12.226 39.8667 12.2154 39.8619 12.2103 39.8644L12.0137 39.9422C11.9947 39.9496 11.9741 39.9511 11.9556 39.9463C11.937 39.9416 11.9215 39.931 11.9116 39.9163C11.8527 39.8279 11.7806 39.7649 11.6953 39.7273" stroke="#C1FDB2" stroke-width="2"/>
<path d="M30.5844 39.2563C29.5573 39.4057 28.5582 39.4671 27.587 39.4407" stroke="#FF7147" stroke-width="2"/>
<path d="M27.587 39.4407C26.9095 39.3168 26.2248 39.2599 25.533 39.27C25.376 39.2716 25.1947 39.3676 25.0149 39.2502C24.9722 39.2228 24.926 39.206 24.8762 39.1999L23.9238 39.0902C23.8872 39.0862 23.8842 39.0689 23.9147 39.0384L23.971 38.982C24.0036 38.9495 24.0005 38.9348 23.9619 38.9379L23.2762 38.982C23.1726 38.9881 23.1634 38.9627 23.2488 38.9059C23.3026 38.8713 23.3625 38.8546 23.4286 38.8556C23.4621 38.8556 23.5093 38.8398 23.5703 38.8083C23.6231 38.7809 23.6257 38.7596 23.5779 38.7443C23.517 38.725 23.5119 38.6925 23.5627 38.6468C23.8319 38.402 23.7257 38.3126 23.2442 38.3786C23.2187 38.382 23.195 38.3832 23.1748 38.3821C23.1546 38.3811 23.1383 38.3778 23.1269 38.3725C22.8637 38.2455 22.56 38.2547 22.2156 38.3999C22.0399 38.4741 21.9617 38.4253 21.981 38.2537" stroke="#FFA287" stroke-width="2"/>
<path d="M30.3619 40.3215C30.1983 40.1721 30.0053 40.1066 29.7829 40.1249C29.4933 40.1493 29.3125 40.1574 29.2404 40.1493C28.5303 40.0639 27.8171 40.0274 27.101 40.0396C26.7307 40.0457 26.3878 39.8735 25.9718 39.9436C25.7727 39.9761 25.599 39.9837 25.4507 39.9664C24.8731 39.8979 24.5074 40.2605 23.8842 40.0853C23.8354 40.0721 23.7867 40.0716 23.7379 40.0838C23.2686 40.2026 22.8373 40.1097 22.3726 40.198C22.1308 40.2438 21.886 40.2676 21.6381 40.2697C21.6304 40.2698 21.6229 40.2679 21.616 40.2643C21.6092 40.2606 21.6034 40.2552 21.5989 40.2485C21.5945 40.2418 21.5915 40.2341 21.5904 40.2258C21.5893 40.2176 21.5899 40.2091 21.5924 40.2011C21.6046 40.1635 21.6071 40.1239 21.6 40.0822" stroke="#FF5B03" stroke-width="2"/>
<path d="M21.6 40.0823L22.8191 39.8416" stroke="#FF8D4B" stroke-width="2"/>
<path d="M24.3871 37.2954L24.0762 37.4158" stroke="#FDABA8" stroke-width="2"/>
<path d="M24.0762 37.4158L21.981 38.2539" stroke="#FEBBA4" stroke-width="2"/>
<path d="M21.9809 38.2537C20.8889 38.7179 19.8298 39.2629 18.8038 39.8887" stroke="#FEC69F" stroke-width="2"/>
<path d="M18.8038 39.8889C18.2238 40.1967 17.6752 40.5492 17.1581 40.9464" stroke="#FED6A8" stroke-width="2"/>
<path d="M17.1581 40.9463C17.2617 40.5186 17.1032 40.191 16.6827 39.9634C16.4927 39.8608 16.3835 39.7044 16.3551 39.4941C16.3093 39.1446 16.0706 38.7312 15.6389 38.2537C15.4743 38.0709 15.3326 37.9789 15.2137 37.9779L14.9714 37.9749" stroke="#FDE5C5" stroke-width="2"/>
<path d="M14.9714 37.9748L15.3173 37.6167" stroke="#B9E89F" stroke-width="2"/>
<path d="M9.41563 51.1239C9.36992 50.7561 9.45474 50.4209 9.67011 50.1181C9.70465 50.0694 9.69398 50.044 9.63811 50.042C9.57106 50.0389 9.5096 50.0694 9.45373 50.1334" stroke="#FFE334" stroke-width="2"/>
<path d="M16.768 44.0001C16.6532 43.8193 16.5008 43.8066 16.3109 43.962" stroke="#FFCE34" stroke-width="2"/>
<path d="M16.3108 43.9619C16.3688 43.7801 16.3241 43.587 16.1768 43.3828C16.1685 43.3713 16.1632 43.358 16.1611 43.3441C16.159 43.3301 16.1602 43.3159 16.1647 43.3026C16.1692 43.2893 16.1768 43.2773 16.1868 43.2677C16.1969 43.2581 16.2091 43.251 16.2225 43.2472L16.5318 43.1558C16.567 43.1452 16.5981 43.1286 16.6204 43.1085C16.6427 43.0884 16.6549 43.0659 16.6552 43.0446L16.6583 42.9333C16.6588 42.9237 16.6558 42.9142 16.6496 42.9054C16.6434 42.8967 16.6341 42.8889 16.6223 42.8825C16.6106 42.8762 16.5965 42.8715 16.5812 42.8687C16.5659 42.8659 16.5495 42.8651 16.5333 42.8663C16.2154 42.8907 15.9299 42.8018 15.6769 42.5996" stroke="#FFC423" stroke-width="2"/>
<path d="M24.1905 41.7844C24.4998 41.4751 23.4027 41.7768 23.3783 41.7813C23.2594 41.8037 23.1685 41.7382 23.1055 41.5848C23.0967 41.5622 23.0831 41.5422 23.0662 41.5266C23.0492 41.5109 23.0292 41.5001 23.008 41.4949C21.982 41.245 20.9412 41.1342 19.8857 41.1627C19.5947 41.1703 19.3219 41.0408 18.9318 41.1474C18.7845 41.1871 18.7322 41.122 18.7749 40.9524" stroke="#FF7B05" stroke-width="2"/>
<path d="M22.4061 42.2035C21.5121 41.8724 20.8879 41.6814 20.5333 41.6306C20.2103 41.5849 19.423 41.5762 18.1714 41.6047C17.9855 41.6093 17.3303 41.8089 17.4095 41.5681" stroke="#FFA20C" stroke-width="2"/>
<path d="M17.1581 40.9463C16.4216 41.4563 15.7272 42.0033 15.0751 42.5874C15.0564 42.6041 15.0416 42.6241 15.0316 42.6459C15.0216 42.6677 15.0167 42.6909 15.0171 42.7139C15.0202 42.8165 15.0451 42.9151 15.0918 43.0095" stroke="#FFDDB1" stroke-width="2"/>
<path d="M15.0918 43.0095L14.2415 43.6952" stroke="#FFDD81" stroke-width="2"/>
<path d="M14.2415 43.6953L13.9916 43.898" stroke="#FFE792" stroke-width="2"/>
<path d="M13.9916 43.898C13.8413 43.0081 13.5533 42.1791 13.1276 41.4111C13.1086 41.3772 13.0891 41.3472 13.0714 41.325C13.0538 41.3027 13.0388 41.2892 13.0286 41.2862C12.7888 41.2161 12.7121 41.0698 12.7985 40.8473C12.8044 40.8315 12.8023 40.8119 12.7923 40.7918C12.7824 40.7716 12.7652 40.752 12.7436 40.7361C12.7091 40.7107 12.6878 40.6812 12.6796 40.6477" stroke="#FFF1D8" stroke-width="2"/>
<path d="M12.6796 40.6478L12.7619 40.4634" stroke="#E9F5C8" stroke-width="2"/>
<path d="M12.7619 40.4633L13.6762 39.3494" stroke="#D6F3B8" stroke-width="2"/>
<path d="M13.6762 39.3493L13.9931 38.9729" stroke="#CBF1B0" stroke-width="2"/>
<path d="M13.9916 43.8979C12.0686 45.6717 10.5559 47.7501 9.4537 50.1334" stroke="#FFED9C" stroke-width="2"/>
<path d="M9.45371 50.1333L9.40952 50.1775" stroke="#FFED79" stroke-width="2"/>
<path d="M9.40954 50.1776C9.30287 50.3127 9.17182 50.3823 9.01639 50.3864C9.00378 50.3866 8.99126 50.3851 8.97956 50.3822C8.96786 50.3792 8.95722 50.3748 8.94828 50.3691C8.93933 50.3634 8.93225 50.3566 8.92746 50.3491C8.92267 50.3416 8.92027 50.3335 8.92039 50.3254C8.92141 50.0796 8.99862 49.8672 9.15201 49.6885C9.18655 49.6478 9.18249 49.63 9.13982 49.6351C9.06769 49.6443 9.01741 49.6834 8.98896 49.7525C8.98066 49.774 8.96877 49.7928 8.95504 49.806C8.94132 49.8191 8.92649 49.826 8.91277 49.8256C8.72484 49.8195 8.65017 49.9099 8.68877 50.0968C8.69378 50.1208 8.69183 50.1456 8.68316 50.1681C8.67449 50.1906 8.65948 50.2098 8.64001 50.2233C8.53944 50.2944 8.46376 50.2645 8.41296 50.1334" stroke="#FFF7D1" stroke-width="2"/>
<path d="M8.41296 50.1334L8.53944 49.6763" stroke="#F3FBC2" stroke-width="2"/>
<path d="M27.5871 39.4409C25.9947 39.6558 24.6492 39.5628 22.8191 39.8417" stroke="#FF7C42" stroke-width="2"/>
<path d="M22.819 39.8415C22.9938 39.7907 23.0537 39.7303 22.9988 39.6602C22.9861 39.6447 22.9672 39.6323 22.9439 39.624C22.9206 39.6158 22.8934 39.612 22.8648 39.6129C22.1364 39.6358 21.4583 39.8476 20.7482 39.8994C20.418 39.9238 20.0884 39.9654 19.7592 40.0244C19.4281 40.0843 19.1096 40.0391 18.8038 39.8887" stroke="#FFBE8A" stroke-width="2"/>
<path d="M21.6 40.0823C20.6227 40.258 19.681 40.5481 18.7749 40.9524" stroke="#FF9C4C" stroke-width="2"/>
<path d="M18.7748 40.9524C18.2984 41.1099 17.8433 41.3151 17.4095 41.568" stroke="#FFAD4D" stroke-width="2"/>
<path d="M17.4095 41.5681C16.8071 41.8454 16.2296 42.1893 15.6769 42.5997" stroke="#FFC452" stroke-width="2"/>
<path d="M15.6769 42.5996L15.0918 43.0095" stroke="#FFCF64" stroke-width="2"/>
<path d="M16.3109 43.962L15.1253 44.5624C15.0898 44.5806 15.074 44.5608 15.0781 44.5029C15.1086 44.121 14.9298 43.8893 14.5417 43.8081C14.5319 43.8061 14.5152 43.8089 14.4935 43.8161C14.4717 43.8234 14.4457 43.8348 14.4183 43.8492C14.2771 43.9254 14.2182 43.8741 14.2415 43.6953" stroke="#FFD945" stroke-width="2"/>
<path d="M9.50858 62.9454C5.11391 61.4643 1.68991 57.7264 0.68572 53.2159C0.210291 51.0841 0.12191 48.9508 0.120386 46.4852C0.112259 36.6302 0.110736 26.7753 0.115815 16.9203C0.117339 14.665 0.236196 12.7085 0.72991 10.6681C1.98401 5.48866 6.11201 1.56028 11.3173 0.574374C13.1749 0.22085 15.0766 0.123326 17.1992 0.120278C34.3431 0.103009 44.61 0.102501 48 0.118755C48.8797 0.122818 50.1354 0.229993 51.7669 0.440278C58.1684 1.26618 62.8267 6.09361 63.6114 12.4982C63.7882 13.9351 63.8811 15.2898 63.8811 16.8288C63.8872 27.0323 63.8883 37.2362 63.8842 47.4407C63.8842 48.2437 63.8111 49.0864 63.7699 49.9808C63.4728 56.5195 59.4926 61.9016 53.056 63.337C51.2137 63.7485 49.3379 63.8826 47.6328 63.8826C30.112 63.8927 19.5805 63.8922 16.0381 63.881C13.9474 63.8734 11.453 63.5991 9.50858 62.9454ZM56.0061 7.73323C55.6333 11.0846 54.336 14.0159 52.1143 16.5271L51.1619 17.4414C50.7434 17.863 50.2974 18.2343 49.824 18.5553C49.4969 18.6782 49.2023 18.8509 48.9402 19.0734C46.9623 20.7496 44.5029 22.0967 42.2171 23.1268C39.714 24.2554 37.0387 25.2733 34.1912 26.1805C34.1181 26.2048 33.8103 26.3786 34.1333 26.406L30.6286 27.2319C31.0202 26.7549 27.9147 27.7439 27.8309 27.7652C27.5556 27.8374 27.4169 27.8734 27.4149 27.8734C22.6514 29.3957 18.6941 31.8765 15.0263 35.1786C14.8556 35.332 14.5986 35.6179 14.2552 36.0365C14.0328 36.3087 13.7864 36.6033 13.5162 36.9203C9.45677 41.6928 7.4362 47.881 7.10553 54.0845C7.09436 54.2846 7.07861 54.4847 7.05829 54.6848C6.99124 55.3523 7.10858 56.1142 7.01105 56.6475C6.97042 56.872 7.04407 56.9736 7.23201 56.9523L7.34629 56.9904C7.61905 57.3088 7.88724 55.8719 7.94362 55.7134C8.33677 54.601 8.69639 53.4125 9.10629 52.3778C10.751 48.2412 13.6132 45.4155 17.693 43.9008C22.176 42.2368 26.9486 41.5207 31.5444 40.2132C32.4018 39.9684 33.5965 39.5544 35.1284 38.9713C38.3518 37.7452 41.311 36.2589 44.0061 34.5127C44.0287 34.4981 44.0475 34.48 44.061 34.4599C44.0745 34.4398 44.0823 34.4181 44.0838 34.3968C44.0869 34.3379 44.0716 34.2861 44.0381 34.2414L44.3048 34.0509L45.8347 32.9523C47.1858 31.9567 48.4206 30.8332 49.5391 29.5816C50.7764 28.3158 51.8527 26.9251 52.768 25.4094C53.279 24.6597 53.7234 23.8724 54.1013 23.0475C55.4575 20.2264 56.2829 17.255 56.5775 14.1332L56.7177 12.9904L56.7284 13.4003C56.7289 13.4147 56.7314 13.428 56.7355 13.4384C56.7396 13.4488 56.7451 13.4557 56.7512 13.4582L56.7878 13.4734C56.7953 13.4763 56.8033 13.4758 56.8114 13.4721C56.8194 13.4684 56.8273 13.4615 56.8343 13.4519C56.8414 13.4424 56.8474 13.4305 56.852 13.417C56.8567 13.4036 56.8597 13.389 56.861 13.3744C57.0362 11.1984 56.9646 9.11075 56.3246 7.02314C56.2687 6.84231 56.1839 6.78694 56.0701 6.85704L55.9604 6.71685C55.9299 6.67723 55.9167 6.68231 55.9208 6.73209L56.0061 7.73323Z" fill="#242424"/>
<path d="M56.0701 6.8572C56.6563 8.85847 56.8721 10.9029 56.7177 12.9905L56.5775 14.1334L56.6004 13.2313C56.6008 13.2214 56.5991 13.2113 56.5957 13.2021C56.5922 13.1929 56.587 13.1847 56.5805 13.1784C56.574 13.1721 56.5665 13.1678 56.5585 13.1658C56.5506 13.1639 56.5424 13.1644 56.5349 13.1673C56.3657 13.2267 56.4145 14.1212 56.3688 14.3437C56.2418 14.9674 56.1448 15.5957 56.0777 16.2286C56.0361 16.6187 55.8375 17.4289 55.4819 18.6591C55.4728 18.6926 55.4545 18.7063 55.4225 18.6881C55.4099 18.6809 55.3995 18.6714 55.3927 18.6608C55.3859 18.6502 55.383 18.6389 55.3844 18.6286C55.424 18.3909 55.3671 18.1837 55.2137 18.0069C55.1957 17.9861 55.1824 17.9629 55.1747 17.9391C55.1671 17.9153 55.1653 17.8916 55.1695 17.8698C55.2046 17.6793 54.9532 15.4027 54.4381 16.3368C55.6318 13.594 56.1544 10.7262 56.0061 7.73339L55.9208 6.73225C55.9167 6.68247 55.9299 6.67739 55.9604 6.71701L56.0701 6.8572Z" fill="#7E4ADF"/>
<path d="M56.7177 12.9906C56.8721 10.903 56.6563 8.85852 56.0701 6.85725C56.1839 6.78716 56.2687 6.84252 56.3246 7.02335C56.9646 9.11097 57.0362 11.1986 56.861 13.3746C56.8597 13.3892 56.8567 13.4038 56.852 13.4172C56.8474 13.4307 56.8414 13.4426 56.8343 13.4521C56.8273 13.4617 56.8194 13.4686 56.8114 13.4723C56.8033 13.476 56.7953 13.4765 56.7878 13.4736L56.7512 13.4584C56.7451 13.4559 56.7396 13.449 56.7355 13.4386C56.7314 13.4282 56.7289 13.4149 56.7284 13.4005L56.7177 12.9906Z" fill="#120B0B"/>
<path d="M56.0061 7.7334C56.1544 10.7262 55.6317 13.594 54.4381 16.3368C53.8204 17.6615 53.0616 18.8938 52.1615 20.0336L51.0095 21.3273L50.7108 21.6001C50.7677 21.3949 50.8241 21.1902 50.88 20.986C51.075 20.2728 51.5825 19.7456 51.7988 19.0187C52.0427 18.202 52.3307 17.5635 52.2834 16.6096C52.2821 16.5838 52.2736 16.5594 52.2593 16.541C52.2451 16.5225 52.226 16.5112 52.2057 16.509C52.1742 16.506 52.1437 16.5121 52.1143 16.5273C54.336 14.0161 55.6333 11.0848 56.0061 7.7334Z" fill="#39229A"/>
<path d="M56.5775 14.1333C56.2829 17.2551 55.4575 20.2265 54.1013 23.0476C54.0851 22.9815 54.0531 22.9475 54.0053 22.9455C53.9884 22.9441 53.9686 22.9521 53.9487 22.9684C53.9288 22.9848 53.9097 23.0087 53.8941 23.0369L53.0514 24.55C53.0189 24.6079 52.9966 24.6013 52.9844 24.5302C52.7518 23.1507 52.5384 21.7676 52.3444 20.3809C52.3352 20.3118 52.2743 20.196 52.1615 20.0335C53.0616 18.8937 53.8205 17.6614 54.4381 16.3367C54.9531 15.4026 55.2046 17.6792 55.1695 17.8697C55.1653 17.8915 55.167 17.9152 55.1747 17.939C55.1824 17.9628 55.1957 17.986 55.2137 18.0068C55.3671 18.1836 55.424 18.3908 55.3844 18.6285C55.383 18.6388 55.3859 18.6501 55.3927 18.6607C55.3995 18.6713 55.4099 18.6808 55.4225 18.6879C55.4545 18.7062 55.4728 18.6925 55.4819 18.659C55.8375 17.4288 56.0361 16.6186 56.0777 16.2285C56.1448 15.5956 56.2418 14.9673 56.3688 14.3436C56.4145 14.1211 56.3657 13.2266 56.5349 13.1672C56.5424 13.1643 56.5505 13.1638 56.5585 13.1657C56.5665 13.1676 56.574 13.172 56.5805 13.1783C56.587 13.1846 56.5922 13.1928 56.5956 13.202C56.5991 13.2112 56.6007 13.2212 56.6004 13.2312L56.5775 14.1333Z" fill="#9548E0"/>
<path d="M50.7108 21.6001L49.9047 22.3559L48.1524 23.6893C46.9963 24.4623 45.7793 25.1247 44.5013 25.6763L44.4769 25.5529C44.4723 25.532 44.475 25.5104 44.4845 25.4919C44.4941 25.4734 44.5098 25.4593 44.5287 25.4523C45.2983 25.1689 45.7219 24.7117 46.3847 24.3094C46.8678 24.0169 47.1146 23.7045 47.6602 23.3571C48.4851 22.8298 49.2287 22.0852 49.891 21.1232C50.5534 20.1713 51.0618 18.9853 51.4164 17.5651C51.4204 17.5482 51.42 17.5306 51.4152 17.5138C51.4104 17.497 51.4013 17.4814 51.3886 17.4684C51.376 17.4553 51.3602 17.4451 51.3425 17.4386C51.3248 17.4321 51.3057 17.4295 51.2868 17.431L51.1619 17.4416L52.1143 16.5273C52.1437 16.5121 52.1742 16.506 52.2057 16.5091C52.226 16.5112 52.2451 16.5225 52.2593 16.541C52.2736 16.5595 52.2821 16.5838 52.2834 16.6096C52.3306 17.5635 52.0426 18.202 51.7988 19.0188C51.5825 19.7456 51.075 20.2729 50.88 20.986C50.8241 21.1902 50.7677 21.3949 50.7108 21.6001Z" fill="#4C32AF"/>
<path d="M49.8911 21.123L49.5132 21.4263C49.4654 21.4649 49.4446 21.4593 49.4507 21.4095C49.4547 21.3739 49.4745 21.3404 49.5101 21.3089C49.6991 21.1423 49.8093 20.9376 49.8408 20.6948C49.854 20.5943 49.8377 20.5917 49.792 20.6872L49.6671 20.9432C49.6464 20.9875 49.6092 21.0241 49.5619 21.0468C49.4034 21.1251 49.2958 21.247 49.2389 21.4125C49.2206 21.4654 49.1957 21.5075 49.1642 21.539C48.1717 22.5143 47.3519 23.2081 46.7048 23.6205C45.8829 24.1437 45.249 24.607 44.8031 25.0103C44.67 25.1301 44.513 25.2327 44.3322 25.3181C43.8781 25.5314 43.5429 25.8468 43.1025 26.0129C42.1293 26.3786 41.1429 26.7032 40.1432 26.9866C40.0376 26.947 39.9264 26.9374 39.8095 26.9577C39.5119 27.0085 39.4753 26.9155 39.6998 26.6788C39.7801 26.5945 39.7811 26.5244 39.7029 26.4685C39.6924 26.461 39.6829 26.4519 39.6752 26.4421C39.6675 26.4322 39.6618 26.4218 39.6584 26.4117C39.655 26.4015 39.6541 26.3919 39.6557 26.3836C39.6574 26.3752 39.6615 26.3683 39.6678 26.3634L40.3459 25.7905C40.9402 26.0515 41.4619 26.1033 41.9109 25.9459C42.5499 25.7224 43.297 25.279 44.1524 24.6156C44.6751 24.5135 43.4088 25.2221 44.2652 24.8426C44.2689 24.841 44.273 24.8402 44.2771 24.8403C44.2813 24.8404 44.2853 24.8415 44.289 24.8434C44.2926 24.8453 44.2958 24.848 44.2983 24.8513C44.3008 24.8546 44.3025 24.8584 44.3032 24.8625C44.3246 24.9752 44.3688 24.8503 44.3794 24.8396C44.6263 24.6344 45.1104 24.2534 45.8316 23.6967C46.365 23.2843 46.9496 22.7576 47.5855 22.1165C47.5927 22.1094 47.6022 22.1039 47.6132 22.1005C47.6243 22.0971 47.6367 22.0958 47.6495 22.0967C47.6998 22.1013 47.7135 22.0967 47.7471 22.0586C48.4937 21.1764 49.1444 20.5805 49.2343 19.6922C49.2352 19.6826 49.238 19.6737 49.2422 19.6672C49.2465 19.6607 49.2518 19.6571 49.2572 19.6571L49.2952 19.6586C49.2988 19.6584 49.3021 19.6565 49.305 19.6529C49.3079 19.6494 49.3104 19.6444 49.3122 19.6381C49.3141 19.6318 49.3153 19.6245 49.3158 19.6165C49.3163 19.6085 49.316 19.6 49.3151 19.5916C49.2937 19.426 49.3399 19.2853 49.4537 19.1695C49.4724 19.1507 49.4866 19.129 49.4948 19.1064C49.5031 19.0838 49.5052 19.0609 49.501 19.04L49.4796 18.9333C49.6147 18.848 49.7295 18.722 49.824 18.5554C50.2974 18.2344 50.7434 17.8631 51.1619 17.4415L51.2869 17.4308C51.3058 17.4293 51.3248 17.4319 51.3425 17.4384C51.3602 17.4449 51.376 17.4551 51.3886 17.4682C51.4013 17.4813 51.4104 17.4969 51.4152 17.5137C51.42 17.5305 51.4204 17.5481 51.4164 17.5649C51.0619 18.9851 50.5534 20.1711 49.8911 21.123Z" fill="#614DC6"/>
<path d="M49.824 18.5554C49.7295 18.722 49.6147 18.848 49.4796 18.9333L48.381 19.8034L47.1238 20.6796C45.0982 21.9688 42.9775 23.0776 40.7619 24.0061L40.5821 24.0731C38.6438 24.8757 36.6847 25.6025 34.7048 26.2537L34.1333 26.4061C33.8103 26.3787 34.1181 26.2049 34.1913 26.1806C37.0387 25.2734 39.714 24.2555 42.2172 23.1268C44.5029 22.0968 46.9623 20.7497 48.9402 19.0735C49.2023 18.851 49.4969 18.6783 49.824 18.5554Z" fill="#191B0A"/>
<path d="M49.4796 18.9333L49.5009 19.04C49.5052 19.061 49.503 19.0838 49.4948 19.1065C49.4865 19.1291 49.4724 19.1508 49.4537 19.1695C49.3399 19.2854 49.2937 19.426 49.315 19.5916C49.316 19.6001 49.3162 19.6085 49.3157 19.6165C49.3153 19.6245 49.3141 19.6319 49.3122 19.6381C49.3103 19.6444 49.3079 19.6495 49.305 19.653C49.302 19.6565 49.2987 19.6585 49.2952 19.6587L49.2571 19.6572C49.2518 19.6572 49.2464 19.6608 49.2422 19.6673C49.238 19.6738 49.2351 19.6827 49.2343 19.6922C49.1444 20.5806 48.4937 21.1764 47.747 22.0587C47.7135 22.0968 47.6998 22.1013 47.6495 22.0968C47.6367 22.0958 47.6243 22.0971 47.6132 22.1006C47.6022 22.104 47.5927 22.1095 47.5855 22.1166C46.9496 22.7576 46.3649 23.2843 45.8316 23.6968C45.1103 24.2535 44.6263 24.6344 44.3794 24.8396C44.3687 24.8503 44.3246 24.9753 44.3032 24.8625C44.3024 24.8584 44.3007 24.8546 44.2983 24.8513C44.2958 24.848 44.2926 24.8453 44.289 24.8434C44.2853 24.8415 44.2813 24.8404 44.2771 24.8403C44.273 24.8402 44.2689 24.841 44.2651 24.8427C43.4087 25.2221 44.675 24.5135 44.1524 24.6156C44.2682 24.3708 44.4292 24.1864 44.6354 24.0625C45.1947 23.7242 45.6442 23.2732 46.1303 22.9242C46.8505 22.4081 47.4443 21.7697 47.9116 21.0088C48.099 20.704 48.0122 20.3322 48.4145 20.1052C48.4387 20.0914 48.4594 20.0744 48.4749 20.0554C48.4905 20.0364 48.5006 20.0159 48.5044 19.9954C48.5227 19.8969 48.4815 19.8329 48.3809 19.8034L49.4796 18.9333Z" fill="#6D4EC8"/>
<path d="M48.381 19.8035C48.4815 19.8329 48.5227 19.8969 48.5044 19.9955C48.5006 20.0159 48.4905 20.0364 48.475 20.0554C48.4594 20.0744 48.4387 20.0914 48.4145 20.1052C48.0122 20.3322 48.0991 20.704 47.9116 21.0088C47.4443 21.7697 46.8506 22.4082 46.1303 22.9242C45.6442 23.2732 45.1947 23.7242 44.6354 24.0625C44.4292 24.1865 44.2682 24.3708 44.1524 24.6157C43.297 25.279 42.5499 25.7225 41.9109 25.9459C41.4619 26.1034 40.9402 26.0516 40.3459 25.7905C40.3581 25.6483 40.4363 25.5457 40.5806 25.4827C40.583 25.4815 40.5858 25.4811 40.5885 25.4815C40.5913 25.4819 40.5939 25.4832 40.5963 25.4851C40.5987 25.4871 40.6008 25.4897 40.6023 25.4927C40.6038 25.4957 40.6047 25.4991 40.605 25.5025L40.608 25.5315C40.6111 25.566 40.6324 25.5635 40.672 25.5238C40.8488 25.3425 40.8503 25.1139 40.9798 24.9387C41.1464 24.7122 41.3435 24.5136 41.5711 24.3429C41.6148 24.3102 41.6466 24.2698 41.6625 24.2271L41.8286 23.7776C43.6551 22.9191 45.4222 21.9536 47.1299 20.8808C47.2589 20.8005 47.2569 20.7335 47.1238 20.6797L48.381 19.8035Z" fill="#6F5DD0"/>
<path d="M52.1615 20.0334C52.2743 20.196 52.3352 20.3118 52.3444 20.3809C52.5384 21.7675 52.7517 23.1507 52.9844 24.5302C52.9966 24.6013 53.0189 24.6079 53.0514 24.55L53.8941 23.0369C53.9097 23.0087 53.9288 22.9848 53.9487 22.9684C53.9686 22.9521 53.9884 22.944 54.0053 22.9454C54.0531 22.9475 54.0851 22.9815 54.1013 23.0475C53.7234 23.8724 53.279 24.6597 52.768 25.4094C52.77 25.3282 52.7451 25.287 52.6933 25.286C52.6754 25.2859 52.6552 25.2934 52.6349 25.3079C52.6145 25.3223 52.5947 25.3432 52.5775 25.3683L51.4621 27.0186C51.6094 25.5547 51.5754 24.0954 51.36 22.6407C51.3097 22.3039 51.331 21.7889 51.1802 21.3729C51.1749 21.3572 51.1626 21.3443 51.1455 21.3365C51.1284 21.3287 51.1077 21.3264 51.0872 21.3302C51.0618 21.3353 51.0359 21.3343 51.0095 21.3272L52.1615 20.0334Z" fill="#AB48DE"/>
<path d="M49.891 21.123C49.2287 22.085 48.4851 22.8297 47.6602 23.3569C47.1147 23.7043 46.8678 24.0167 46.3847 24.3093C45.7219 24.7116 45.2983 25.1687 44.5288 25.4521C44.5098 25.4592 44.4941 25.4733 44.4845 25.4917C44.475 25.5102 44.4723 25.5319 44.4769 25.5527L44.5013 25.6761C43.1543 26.2714 41.7681 26.756 40.3428 27.1299L40.1524 27.168C40.1381 27.1294 40.1351 27.0689 40.1432 26.9866C41.1428 26.7032 42.1293 26.3786 43.1025 26.0129C43.5428 25.8468 43.8781 25.5314 44.3322 25.3181C44.513 25.2327 44.67 25.1301 44.803 25.0102C45.249 24.6069 45.8829 24.1437 46.7048 23.6205C47.3519 23.2081 48.1717 22.5142 49.1642 21.539C49.1957 21.5075 49.2206 21.4654 49.2388 21.4125C49.2957 21.2469 49.4034 21.125 49.5619 21.0468C49.6092 21.0241 49.6464 20.9875 49.667 20.9432L49.792 20.6872C49.8377 20.5917 49.854 20.5942 49.8407 20.6948C49.8093 20.9376 49.699 21.1423 49.5101 21.3089C49.4745 21.3404 49.4547 21.3739 49.4507 21.4095C49.4446 21.4593 49.4654 21.4648 49.5131 21.4262L49.891 21.123Z" fill="#4E46C2"/>
<path d="M47.1238 20.6797C47.2569 20.7335 47.2589 20.8006 47.1299 20.8808C45.4222 21.9536 43.6551 22.9192 41.8286 23.7776L40.6812 24.2043C40.6456 24.2175 40.6385 24.2063 40.6598 24.1707L40.7619 24.0062C42.9775 23.0777 45.0982 21.9688 47.1238 20.6797Z" fill="#7D6CF6"/>
<path d="M51.4621 27.0186L50.0983 28.7298C49.9174 28.9564 49.8326 28.9244 49.8438 28.6338C49.8733 27.8668 49.9276 27.011 50.0068 26.0662C50.0536 25.5034 49.9804 24.4972 49.7874 23.0475C49.7816 23.0014 49.7941 22.9535 49.8225 22.9134C49.9464 22.7367 49.9738 22.5508 49.9047 22.3557L50.7108 21.5999L51.0095 21.3271C51.0359 21.3343 51.0618 21.3353 51.0872 21.3302C51.1077 21.3264 51.1284 21.3286 51.1455 21.3365C51.1626 21.3443 51.1749 21.3572 51.1802 21.3729C51.331 21.7889 51.3097 22.3039 51.36 22.6407C51.5753 24.0954 51.6094 25.5547 51.4621 27.0186Z" fill="#B948DD"/>
<path d="M49.9048 22.3557C49.9738 22.5508 49.9464 22.7367 49.8225 22.9134C49.7941 22.9535 49.7816 23.0014 49.7874 23.0475C49.9804 24.4972 50.0536 25.5034 50.0069 26.0662C49.9276 27.0109 49.8733 27.8668 49.8438 28.6338C49.8326 28.9243 49.9174 28.9563 50.0983 28.7298L51.4621 27.0186L52.5775 25.3683C52.5947 25.3432 52.6145 25.3223 52.6349 25.3079C52.6552 25.2934 52.6754 25.2859 52.6933 25.286C52.7451 25.287 52.77 25.3282 52.768 25.4094C51.8527 26.9251 50.7764 28.3158 49.539 29.5816L48.4952 30.2155C48.4485 30.1769 48.3977 30.152 48.3428 30.1409C48.3304 30.1381 48.3117 30.1407 48.2887 30.1485C48.2657 30.1562 48.2392 30.1688 48.2118 30.185L47.8598 30.3938C48 29.9671 47.8339 29.6182 47.8842 29.2372C48.0107 28.2757 48.3748 24.9188 47.8202 24.3595C47.8058 24.3448 47.7974 24.3252 47.7969 24.3049C47.7963 24.2845 47.8036 24.2648 47.8171 24.2498C47.8872 24.1751 48.4145 23.7835 48.1524 23.689L49.9048 22.3557Z" fill="#C748DC"/>
<path d="M48.1524 23.6892C48.4145 23.7837 47.8872 24.1753 47.8171 24.25C47.8036 24.2649 47.7963 24.2846 47.7969 24.305C47.7975 24.3254 47.8058 24.345 47.8202 24.3597C48.3749 24.9189 48.0107 28.2759 47.8842 29.2374C47.8339 29.6184 48 29.9673 47.8598 30.394C46.6758 31.1193 45.6686 31.6603 44.3977 32.0793C44.3896 32.082 44.381 32.0827 44.3725 32.0813C44.3641 32.08 44.3561 32.0766 44.3492 32.0716C44.3424 32.0665 44.3368 32.0598 44.3331 32.0522C44.3293 32.0445 44.3274 32.036 44.3276 32.0275C44.3322 31.4088 43.9406 31.3479 43.5688 31.0538C43.5617 31.0477 43.5424 31.0065 43.5109 30.9304L43.3631 30.586C43.3575 30.5731 43.3443 30.5602 43.3247 30.5487C43.3051 30.5371 43.2799 30.5274 43.2518 30.5204C43.0141 30.4656 42.8038 30.4168 42.6225 30.234C42.0312 29.6387 41.4578 29.0276 40.9021 28.4008C40.7116 28.186 40.6309 27.8766 40.5029 27.6222C40.4928 27.6025 40.4886 27.5802 40.4907 27.5579C40.4929 27.5355 40.5013 27.5139 40.5151 27.4957C40.6542 27.3037 40.5968 27.1818 40.3429 27.13C41.7681 26.7561 43.1543 26.2716 44.5013 25.6763C45.7793 25.1246 46.9963 24.4623 48.1524 23.6892Z" fill="#DA4ADB"/>
<path d="M41.8286 23.7776L41.6625 24.2271C41.6466 24.2698 41.6147 24.3102 41.571 24.3429C41.3435 24.5136 41.1464 24.7122 40.9798 24.9387C40.8503 25.114 40.8488 25.3425 40.672 25.5239C40.6324 25.5635 40.611 25.566 40.608 25.5315L40.6049 25.5025C40.6047 25.4991 40.6038 25.4957 40.6023 25.4927C40.6008 25.4897 40.5987 25.4871 40.5963 25.4851C40.5939 25.4832 40.5912 25.4819 40.5885 25.4815C40.5857 25.4811 40.583 25.4815 40.5806 25.4827C40.4363 25.5457 40.3581 25.6483 40.3459 25.7905L39.6678 26.3635C39.6615 26.3684 39.6573 26.3753 39.6557 26.3837C39.6541 26.392 39.655 26.4016 39.6584 26.4118C39.6617 26.4219 39.6675 26.4323 39.6752 26.4422C39.6829 26.452 39.6924 26.4611 39.7028 26.4686C39.7811 26.5245 39.7801 26.5946 39.6998 26.6789C39.4753 26.9156 39.5119 27.0086 39.8095 26.9578C39.9263 26.9375 40.0376 26.9471 40.1432 26.9867C40.1351 27.069 40.1381 27.1295 40.1524 27.1681L38.1333 27.7014L37.219 27.9178C37.217 27.8416 37.1952 27.7735 37.1535 27.7136C37.1388 27.6931 37.119 27.6774 37.0969 27.6686C37.0748 27.6599 37.0514 27.6586 37.0301 27.6648L35.3493 28.1387C35.3247 28.1456 35.2988 28.1461 35.2739 28.1402C35.249 28.1343 35.2261 28.1221 35.2072 28.1049C35.1883 28.0877 35.1741 28.066 35.1659 28.0418C35.1577 28.0176 35.1558 27.9917 35.1604 27.9665C35.2132 27.6882 35.3315 27.449 35.5154 27.2488C35.5224 27.2412 35.5277 27.2322 35.531 27.2224C35.5344 27.2126 35.5356 27.2021 35.5348 27.1917C35.5339 27.1813 35.5309 27.1711 35.526 27.1618C35.5211 27.1525 35.5144 27.1443 35.5063 27.1376C35.4677 27.1061 35.4651 27.0634 35.4987 27.0096L35.6571 26.9014C36.9016 26.3305 38.1044 25.6732 39.2655 24.9296C39.7521 24.7284 40.191 24.443 40.5821 24.0732L40.7619 24.0062L40.6598 24.1707C40.6385 24.2063 40.6456 24.2175 40.6811 24.2043L41.8286 23.7776Z" fill="#5770D8"/>
<path d="M40.5821 24.0732C40.191 24.443 39.7521 24.7285 39.2655 24.9296C38.2812 25.2039 37.3171 25.5412 36.3734 25.9414C36.3289 25.9602 36.2918 25.9946 36.2682 26.039C36.1981 26.167 35.392 26.9197 35.6572 26.9014L35.4987 27.0096L32.5958 28.3049C32.5948 27.7898 32.8193 27.4002 33.2694 27.1361C33.3415 27.0934 33.3725 27.0386 33.3623 26.9715C33.3592 26.9499 33.3623 26.9283 33.3712 26.9103C33.38 26.8922 33.3941 26.8789 33.4111 26.8725C33.7463 26.743 34.2339 26.5205 34.5844 26.5083C34.8587 26.4981 34.8988 26.4133 34.7048 26.2538C36.6847 25.6026 38.6438 24.8758 40.5821 24.0732Z" fill="#046BD8"/>
<path d="M39.2655 24.9294C38.1044 25.6731 36.9016 26.3303 35.6572 26.9013C35.392 26.9195 36.1981 26.1668 36.2682 26.0388C36.2918 25.9945 36.3289 25.96 36.3733 25.9413C37.3171 25.541 38.2812 25.2037 39.2655 24.9294Z" fill="#025CC2"/>
<path d="M34.7048 26.2537C34.8988 26.4132 34.8587 26.498 34.5844 26.5081C34.2339 26.5203 33.7463 26.7428 33.4111 26.8723C33.3941 26.8788 33.38 26.8921 33.3712 26.9101C33.3623 26.9281 33.3592 26.9497 33.3623 26.9714C33.3724 27.0384 33.3415 27.0933 33.2693 27.1359C32.8193 27.4001 32.5948 27.7897 32.5958 28.3047L29.2191 29.7081C29.1505 29.2693 29.1566 28.5348 28.8488 28.2118C28.8333 28.1964 28.8211 28.1768 28.8127 28.1543C28.8043 28.1318 28.8 28.1068 28.8 28.0807C28.798 27.9568 28.7345 27.9151 28.6095 27.9558L28.6415 27.7714L30.6286 27.2319L34.1333 26.406L34.7048 26.2537Z" fill="#118CE9"/>
<path d="M35.4987 27.0095C35.4651 27.0634 35.4677 27.106 35.5063 27.1375C35.5144 27.1442 35.5212 27.1525 35.5261 27.1618C35.531 27.1711 35.5339 27.1812 35.5348 27.1917C35.5356 27.2021 35.5344 27.2125 35.531 27.2223C35.5277 27.2321 35.5224 27.2411 35.5154 27.2488C35.3316 27.4489 35.2132 27.6881 35.1604 27.9665C35.1558 27.9916 35.1577 28.0175 35.1659 28.0417C35.1741 28.0659 35.1883 28.0876 35.2072 28.1049C35.2261 28.1221 35.2491 28.1342 35.2739 28.1401C35.2988 28.146 35.3247 28.1455 35.3493 28.1387L37.0301 27.6648C37.0514 27.6585 37.0748 27.6598 37.0969 27.6686C37.119 27.6773 37.1388 27.693 37.1535 27.7135C37.1952 27.7735 37.217 27.8415 37.2191 27.9177L36.4099 28.1356L34.9333 28.5013L31.581 29.4156L29.6686 29.9794L28 30.5082C27.9858 30.3721 27.8969 30.3086 27.7333 30.3177L29.2191 29.7082L32.5958 28.3048L35.4987 27.0095Z" fill="#369BE9"/>
<path d="M30.6286 27.2319L28.6415 27.7713C24.5973 28.8426 20.835 30.7656 17.5177 33.2951L16.2225 34.3999C15.2737 35.2309 14.3975 36.1325 13.5939 37.1047L12.6476 38.3176L12.381 38.6986L11.6952 39.7271C9.89308 42.5675 8.67607 45.6426 8.04419 48.9523C7.68356 50.5452 7.46768 52.1579 7.39657 53.7904L7.232 56.9523C7.04407 56.9736 6.97041 56.872 7.01105 56.6475C7.10857 56.1142 6.99124 55.3523 7.05829 54.6848C7.07861 54.4847 7.09435 54.2846 7.10553 54.0845C7.43619 47.881 9.45676 41.6928 13.5162 36.9203C13.7864 36.6033 14.0328 36.3087 14.2552 36.0365C14.5986 35.6179 14.8556 35.332 15.0263 35.1786C18.6941 31.8765 22.6514 29.3957 27.4149 27.8734C27.4169 27.8734 27.5556 27.8374 27.8309 27.7652C27.9147 27.7439 31.0202 26.7549 30.6286 27.2319Z" fill="#120B0B"/>
<path d="M40.3428 27.1299C40.5968 27.1817 40.6542 27.3036 40.515 27.4956C40.5013 27.5139 40.4929 27.5354 40.4907 27.5578C40.4886 27.5801 40.4928 27.6024 40.5028 27.6221C40.6308 27.8766 40.7116 28.1859 40.9021 28.4007C41.4578 29.0275 42.0312 29.6386 42.6225 30.2339C42.8038 30.4167 43.0141 30.4655 43.2518 30.5204C43.2799 30.5273 43.3051 30.537 43.3247 30.5486C43.3443 30.5601 43.3575 30.573 43.363 30.5859L43.5108 30.9303C43.5423 31.0065 43.5616 31.0476 43.5687 31.0537C43.9406 31.3478 44.3322 31.4087 44.3276 32.0274C44.3274 32.0359 44.3293 32.0444 44.333 32.0521C44.3368 32.0597 44.3424 32.0664 44.3492 32.0715C44.3561 32.0766 44.3641 32.0799 44.3725 32.0813C44.381 32.0826 44.3896 32.0819 44.3977 32.0792C45.6686 31.6602 46.6758 31.1192 47.8598 30.3939L48.2118 30.1851C48.2392 30.1689 48.2657 30.1563 48.2887 30.1485C48.3117 30.1408 48.3304 30.1382 48.3428 30.1409C48.3977 30.1521 48.4485 30.177 48.4952 30.2156C46.6606 31.3696 44.7213 32.2931 42.6773 32.9859C42.3207 32.9239 42.2801 32.8391 42.5554 32.7314C42.5633 32.7281 42.5704 32.723 42.576 32.7166C42.5817 32.7102 42.5857 32.7026 42.5878 32.6946C42.5899 32.6865 42.59 32.6781 42.5881 32.6702C42.5861 32.6623 42.5823 32.6551 42.5767 32.6491C42.4335 32.5008 42.1826 32.2865 41.824 32.0061C41.2327 31.5418 40.3459 30.6372 39.1634 29.2922C38.8282 28.9112 38.6651 28.387 38.1562 28.035C38.1407 28.0246 38.1301 28.0081 38.1265 27.9886C38.1228 27.9692 38.1263 27.9482 38.1364 27.9299C38.1811 27.8476 38.18 27.7714 38.1333 27.7013L40.1524 27.168L40.3428 27.1299Z" fill="#E354D9"/>
<path d="M38.1333 27.7014C38.1801 27.7715 38.1811 27.8477 38.1364 27.93C38.1264 27.9483 38.1228 27.9693 38.1265 27.9887C38.1302 28.0082 38.1408 28.0247 38.1562 28.0351C38.6651 28.3871 38.8282 28.9113 39.1634 29.2923C40.3459 30.6373 41.2328 31.5419 41.824 32.0062C42.1826 32.2866 42.4335 32.5009 42.5768 32.6492C42.5823 32.6552 42.5862 32.6624 42.5881 32.6703C42.59 32.6782 42.5899 32.6866 42.5878 32.6947C42.5858 32.7027 42.5817 32.7103 42.5761 32.7167C42.5704 32.7231 42.5633 32.7282 42.5554 32.7315C42.2801 32.8392 42.3208 32.924 42.6773 32.986L41.0667 33.53C41.1144 33.2902 41.0113 33.1612 40.7573 33.1429C40.7553 33.1429 40.7223 33.1267 40.6583 33.0942C40.6146 33.0718 40.6075 33.0469 40.637 33.0195C40.6435 33.0131 40.6483 33.0051 40.6511 32.9962C40.6538 32.9872 40.6544 32.9776 40.6528 32.9678C40.6512 32.9581 40.6474 32.9485 40.6418 32.9398C40.6362 32.9311 40.6288 32.9234 40.6202 32.9174C39.2244 31.9056 37.696 30.269 36.7192 29.0347C36.5323 28.797 36.4292 28.4974 36.4099 28.1357L37.2191 27.9178L38.1333 27.7014Z" fill="#E75ED6"/>
<path d="M28.6415 27.7715L28.6095 27.9559C27.043 28.4039 25.5152 28.9621 24.0259 29.6305L22.1333 30.5844C20.574 31.3636 19.105 32.2865 17.7265 33.3532C17.7031 33.3715 17.6783 33.3849 17.6546 33.3918C17.631 33.3988 17.6095 33.3992 17.5924 33.3928C17.5527 33.3796 17.5279 33.3471 17.5177 33.2953C20.835 30.7658 24.5973 28.8427 28.6415 27.7715Z" fill="#2DD1EC"/>
<path d="M29.219 29.7081L27.7333 30.3176C26.5234 30.7331 25.3343 31.1953 24.1661 31.7043C24.034 31.2512 24.0162 30.8022 24.1128 30.3572C24.1179 30.3352 24.1173 30.3119 24.1109 30.2893C24.1046 30.2667 24.0926 30.2456 24.0762 30.2277C23.9065 30.0428 23.8898 29.8437 24.0259 29.6304C25.5152 28.9619 27.043 28.4037 28.6095 27.9557C28.7345 27.9151 28.798 27.9567 28.8 28.0807C28.8 28.1067 28.8043 28.1318 28.8127 28.1543C28.821 28.1768 28.8333 28.1963 28.8488 28.2117C29.1566 28.5348 29.1505 29.2692 29.219 29.7081Z" fill="#26A5DF"/>
<path d="M36.4099 28.1357C36.4292 28.4974 36.5323 28.7971 36.7193 29.0348C37.696 30.2691 39.2244 31.9056 40.6202 32.9175C40.6288 32.9235 40.6362 32.9311 40.6418 32.9398C40.6474 32.9485 40.6512 32.9581 40.6528 32.9679C40.6544 32.9776 40.6538 32.9873 40.6511 32.9962C40.6483 33.0052 40.6435 33.0131 40.637 33.0196C40.6075 33.047 40.6146 33.0719 40.6583 33.0942C40.7223 33.1267 40.7553 33.143 40.7573 33.143C41.0113 33.1613 41.1144 33.2903 41.0667 33.53L40.4191 33.7586L39.3798 34.0329C39.2224 33.6052 38.9674 33.2481 38.6149 32.9616C38.4493 32.8276 38.303 32.6742 38.176 32.5015C37.5665 31.671 36.6126 30.9091 35.8522 30.2051C35.7933 30.1502 35.7105 30.0182 35.6038 29.8089C35.4499 29.5026 35.1589 29.3411 34.9714 29.0363C34.9602 29.0183 34.9551 28.9968 34.9567 28.9745C34.9584 28.9523 34.9667 28.9302 34.9806 28.9114C35.0954 28.7539 35.0796 28.6173 34.9333 28.5015L36.4099 28.1357Z" fill="#EB68D4"/>
<path d="M34.9333 28.5012C35.0796 28.617 35.0954 28.7537 34.9806 28.9111C34.9667 28.93 34.9584 28.952 34.9567 28.9743C34.9551 28.9966 34.9602 29.0181 34.9714 29.0361C35.1589 29.3408 35.4499 29.5024 35.6038 29.8086C35.7105 30.0179 35.7933 30.15 35.8522 30.2048C36.6126 30.9088 37.5665 31.6707 38.176 32.5012C38.303 32.6739 38.4493 32.8273 38.6149 32.9614C38.9674 33.2479 39.2224 33.605 39.3798 34.0326L36.9661 34.6254C36.9336 34.4761 36.8396 34.4095 36.6842 34.4258C36.6589 34.4282 36.6341 34.4258 36.6114 34.419C36.5888 34.4122 36.569 34.401 36.5532 34.3862C35.6643 33.5471 34.7942 32.6881 33.9429 31.8094C33.3288 31.1755 32.7208 30.5477 31.9985 30.0326C31.7902 29.8843 31.6511 29.6786 31.581 29.4155L34.9333 28.5012Z" fill="#EF7AD0"/>
<path d="M31.581 29.4155C31.6511 29.6786 31.7902 29.8844 31.9985 30.0327C32.7208 30.5477 33.3288 31.1755 33.9429 31.8094C34.7942 32.6882 35.6643 33.5471 36.5532 34.3862C36.569 34.401 36.5888 34.4122 36.6114 34.419C36.6341 34.4259 36.6589 34.4282 36.6842 34.4258C36.8396 34.4096 36.9336 34.4761 36.9661 34.6254L35.3143 34.9652C35.7852 34.8631 35.5337 34.8494 35.3996 34.7458C34.5874 34.1195 33.9977 33.3668 33.1657 32.6856C32.1935 31.8887 31.4728 30.9698 30.3391 30.3572C30.1156 30.2353 29.8921 30.1094 29.6686 29.9793L31.581 29.4155Z" fill="#F48DCC"/>
<path d="M49.5391 29.5818C48.4206 30.8333 47.1858 31.9569 45.8347 32.9525C45.7758 32.8905 45.7021 32.8641 45.6137 32.8732C45.594 32.8752 45.5731 32.8827 45.5524 32.8952C45.5317 32.9078 45.5116 32.9252 45.4933 32.9464C45.085 33.4248 44.7116 33.1795 44.2255 33.3806C44.1776 33.3996 44.1271 33.4059 44.0793 33.3989C43.678 33.337 43.2991 33.3685 42.9425 33.4934C42.783 33.5493 42.6357 33.5437 42.5006 33.4766C42.4544 33.4531 42.4057 33.4455 42.3634 33.4553C41.7976 33.5945 41.2368 33.7545 40.6812 33.9353C40.4841 34.0003 40.3967 33.9414 40.4191 33.7585L41.0667 33.53L42.6774 32.986C44.7213 32.2932 46.6606 31.3697 48.4953 30.2157L49.5391 29.5818Z" fill="#9E0109"/>
<path d="M24.0259 29.6304C23.8898 29.8437 23.9065 30.0428 24.0762 30.2277C24.0926 30.2456 24.1046 30.2667 24.111 30.2893C24.1173 30.3119 24.118 30.3352 24.1128 30.3572C24.0163 30.8022 24.034 31.2512 24.1661 31.7043L22.6667 32.3869C22.755 32.1888 22.6783 32.1284 22.4366 32.2056C22.4144 32.2128 22.3911 32.2117 22.3685 32.2024C22.3459 32.1931 22.3246 32.1758 22.3064 32.1519C22.2881 32.1281 22.2735 32.0983 22.2635 32.065C22.2536 32.0317 22.2487 31.9958 22.2491 31.9603L22.2705 30.7047C22.271 30.6787 22.2651 30.6538 22.2537 30.6333C22.2422 30.6128 22.2257 30.5978 22.2065 30.5904C22.1811 30.5812 22.1567 30.5792 22.1333 30.5843L24.0259 29.6304Z" fill="#33B4D1"/>
<path d="M29.6686 29.9795C29.8921 30.1095 30.1156 30.2355 30.3391 30.3574C31.4728 30.97 32.1935 31.8888 33.1657 32.6858C33.9977 33.3669 34.5874 34.1197 35.3996 34.746C35.5337 34.8496 35.7852 34.8633 35.3143 34.9654L32.9753 35.3875C32.8594 35.1752 32.7634 35.0355 32.6873 34.9684C31.4306 33.851 30.1384 32.8585 28.8107 31.9909C28.0996 31.5257 27.3087 31.2219 26.4381 31.0797L28 30.5083L29.6686 29.9795Z" fill="#F69DC8"/>
<path d="M27.7333 30.3178C27.8969 30.3086 27.9858 30.3721 28 30.5082L26.4381 31.0797L24.9128 31.6618L22.9501 32.5745C22.2735 32.8417 21.6081 33.1673 20.9539 33.5513L20.4267 33.7631C21.1195 33.2155 21.8662 32.7569 22.6667 32.3871L24.1661 31.7044C25.3343 31.1955 26.5234 30.7332 27.7333 30.3178Z" fill="#0DC9FE"/>
<path d="M22.1333 30.5843C22.1567 30.5792 22.1811 30.5812 22.2065 30.5904C22.2257 30.5978 22.2422 30.6128 22.2537 30.6333C22.2651 30.6537 22.271 30.6787 22.2705 30.7046L22.2491 31.9603C22.2487 31.9958 22.2536 32.0317 22.2635 32.065C22.2735 32.0983 22.2881 32.1281 22.3064 32.1519C22.3246 32.1758 22.3459 32.1931 22.3685 32.2024C22.3911 32.2117 22.4144 32.2128 22.4366 32.2056C22.6783 32.1284 22.755 32.1888 22.6667 32.3869C21.8662 32.7567 21.1195 33.2154 20.4267 33.7629L17.9337 35.4361L17.2571 35.9298C17.2612 35.7998 17.2104 35.6834 17.1048 35.5808C16.8274 35.3126 16.5333 34.919 16.2225 34.3999L17.5177 33.2951C17.5279 33.3469 17.5528 33.3794 17.5924 33.3926C17.6095 33.399 17.631 33.3987 17.6546 33.3917C17.6783 33.3847 17.7031 33.3713 17.7265 33.353C19.105 32.2864 20.574 31.3634 22.1333 30.5843Z" fill="#3AC1B6"/>
<path d="M26.4381 31.0796C27.3087 31.2218 28.0995 31.5256 28.8107 31.9908C30.1384 32.8584 31.4306 33.8509 32.6872 34.9683C32.7634 35.0354 32.8594 35.1751 32.9752 35.3874L32.0061 35.5428C32.2255 35.4484 32.2326 35.4092 32.0274 35.4255C32.0146 35.4265 32.0006 35.4237 31.9863 35.4174C31.9721 35.411 31.958 35.4013 31.9451 35.3889C31.8446 35.2924 31.7227 35.2421 31.5794 35.2381C31.4941 35.236 31.4494 35.234 31.4453 35.232C30.7322 34.7946 30.083 34.2293 29.4034 33.8179C28.739 33.4171 28.035 32.9158 27.4057 32.6004C26.6093 32.2031 25.7783 31.8903 24.9128 31.6617L26.4381 31.0796Z" fill="#F8ADC4"/>
<path d="M24.9128 31.6616C25.7783 31.8902 26.6093 32.2031 27.4057 32.6003C28.0351 32.9157 28.7391 33.417 29.4034 33.8178C30.0831 34.2292 30.7322 34.7946 31.4453 35.2319C31.4494 35.2339 31.4941 35.236 31.5794 35.238C31.7227 35.2421 31.8446 35.2924 31.9452 35.3889C31.958 35.4013 31.9721 35.411 31.9863 35.4173C32.0006 35.4236 32.0146 35.4264 32.0274 35.4254C32.2326 35.4092 32.2255 35.4483 32.0061 35.5428L30.1486 35.8399C30.0175 35.7221 29.8738 35.6393 29.7173 35.5915C29.502 35.5255 29.3542 35.4676 29.2739 35.4178C27.8497 34.5269 26.8185 33.9311 26.1806 33.6304C25.4105 33.2667 24.3337 32.9147 22.9501 32.5744L24.9128 31.6616Z" fill="#FAB9C2"/>
<path d="M22.9501 32.5745C24.3337 32.9148 25.4105 33.2668 26.1806 33.6305C26.8185 33.9312 27.8497 34.527 29.2739 35.4179C29.3542 35.4677 29.502 35.5256 29.7173 35.5916C29.8738 35.6394 30.0175 35.7221 30.1486 35.84L28.9143 36.1204L27.4347 36.419C27.4641 36.3713 27.4657 36.3215 27.4392 36.2697C27.4296 36.2521 27.414 36.236 27.3935 36.2225C27.3729 36.2091 27.3479 36.1987 27.3204 36.192C26.6143 36.0315 25.8143 35.714 24.9204 35.2396C23.9258 34.7124 22.6804 34.3263 21.184 34.0815C20.8538 34.0277 20.7771 33.8509 20.9539 33.5512C21.6081 33.1672 22.2735 32.8416 22.9501 32.5745Z" fill="#FAC5BE"/>
<path d="M45.8347 32.9523L44.3047 34.051C44.3505 33.8509 44.2905 33.7945 44.1249 33.8819C43.8156 34.0449 43.1741 34.5843 42.6529 34.6118C41.1972 34.6869 39.7394 34.7484 38.2796 34.7962C37.0545 34.849 35.8501 35.0471 34.6667 35.3904C34.2562 35.5103 34.0322 35.5702 33.9947 35.5702L33.408 35.5657C33.347 35.5657 33.3018 35.5728 33.2724 35.587C32.8427 35.7927 32.3627 35.7211 31.9863 35.7912C31.0217 35.9725 30.0571 36.0975 29.0926 36.2788C29.0652 36.2843 29.0381 36.284 29.0144 36.2778C28.9906 36.2716 28.9713 36.2598 28.9585 36.2438C28.9321 36.2113 28.9173 36.1701 28.9143 36.1203L30.1486 35.84L32.0061 35.5428L32.9752 35.3874L35.3143 34.9653L36.9661 34.6255L39.3798 34.0327L40.419 33.7584C40.3967 33.9413 40.4841 34.0002 40.6811 33.9352C41.2368 33.7544 41.7976 33.5944 42.3634 33.4552C42.4057 33.4454 42.4544 33.453 42.5006 33.4765C42.6357 33.5436 42.783 33.5492 42.9425 33.4933C43.299 33.3683 43.678 33.3368 44.0792 33.3988C44.1271 33.4058 44.1775 33.3995 44.2255 33.3805C44.7116 33.1794 45.0849 33.4247 45.4933 32.9462C45.5116 32.9251 45.5317 32.9077 45.5524 32.8951C45.5731 32.8825 45.594 32.875 45.6137 32.8731C45.7021 32.864 45.7757 32.8904 45.8347 32.9523Z" fill="#E3124B"/>
<path d="M20.9539 33.5513C20.7771 33.851 20.8538 34.0277 21.184 34.0816C22.6804 34.3264 23.9258 34.7124 24.9204 35.2397C25.8143 35.7141 26.6143 36.0315 27.3204 36.192C27.3479 36.1987 27.3729 36.2092 27.3935 36.2226C27.414 36.236 27.4296 36.2521 27.4392 36.2697C27.4657 36.3216 27.4641 36.3713 27.4347 36.4191L24.4952 37.3014L24.387 37.2953C24.3698 37.1764 24.3063 37.1393 24.1966 37.184C23.6226 37.4177 23.0867 37.5777 22.589 37.664C22.5497 37.6709 22.4965 37.6601 22.4396 37.6336C22.3228 37.5807 22.2039 37.5787 22.083 37.6275C22.0655 37.6346 22.0443 37.6346 22.0223 37.6275C22.0003 37.6204 21.9785 37.6066 21.9596 37.5878C21.6356 37.2638 21.247 37.0601 20.7939 36.9768C20.5704 36.9758 20.3916 36.8391 20.2575 36.5669C20.2251 36.5012 20.1729 36.4474 20.1083 36.4132C20.0438 36.379 19.9701 36.3661 19.8979 36.3764C19.2229 36.4709 18.7352 35.9924 18.1181 35.808C18.1096 35.8053 18.1017 35.8008 18.0951 35.7947C18.0885 35.7886 18.0833 35.7811 18.0798 35.7727C18.0764 35.7643 18.0747 35.7552 18.075 35.7461C18.0753 35.7369 18.0775 35.7279 18.0815 35.7197C18.1506 35.5734 18.1013 35.4789 17.9337 35.4362L20.4267 33.7631L20.9539 33.5513Z" fill="#FBD3BC"/>
<path d="M44.3048 34.051L44.0381 34.2415L41.8682 35.5702L40.9966 35.7089C40.98 35.7118 40.9628 35.7077 40.9484 35.6975C40.934 35.6874 40.9234 35.6718 40.9189 35.6541C40.8945 35.5581 40.7695 35.5184 40.672 35.5321C39.8725 35.6449 39.0878 35.588 38.3177 35.3615L39.6907 34.9851C39.7425 34.9709 39.7405 34.9607 39.6846 34.9546L38.2796 34.7962C39.7394 34.7484 41.1972 34.6869 42.653 34.6118C43.1741 34.5843 43.8156 34.0449 44.125 33.8819C44.2906 33.7945 44.3505 33.8509 44.3048 34.051Z" fill="#F8257C"/>
<path d="M44.0381 34.2415C44.0716 34.2862 44.0869 34.338 44.0838 34.3969C44.0823 34.4182 44.0745 34.4398 44.061 34.4599C44.0475 34.4801 44.0287 34.4982 44.0061 34.5127C41.311 36.259 38.3517 37.7452 35.1284 38.9714C33.5964 39.5545 32.4018 39.9684 31.5444 40.2133C26.9486 41.5207 22.176 42.2369 17.693 43.9009C13.6132 45.4155 10.751 48.2412 9.10628 52.3778C8.69638 53.4125 8.33676 54.6011 7.94362 55.7135C7.88724 55.8719 7.61904 57.3089 7.34628 56.9904L7.61295 55.9999C8.10768 54.3349 8.70857 52.7095 9.41562 51.1237C11.0176 47.8699 13.4684 45.4953 16.768 43.9999C18.5996 43.2685 20.479 42.6696 22.4061 42.2034L24.1905 41.7843C26.2639 41.378 28.321 40.8903 30.3619 40.3215C31.84 39.9364 33.2876 39.4503 34.7048 38.8632C37.1947 37.9936 39.5825 36.8959 41.8682 35.5702L44.0381 34.2415Z" fill="#0A131D"/>
<path d="M16.2225 34.3999C16.5333 34.919 16.8274 35.3127 17.1048 35.5809C17.2104 35.6835 17.2612 35.7998 17.2571 35.9298L15.3173 37.6167C15.0116 37.4267 14.687 37.3495 14.3436 37.385C13.9718 37.4247 13.824 37.3774 13.5939 37.1047C14.3975 36.1325 15.2736 35.2309 16.2225 34.3999Z" fill="#4AE081"/>
<path d="M38.2796 34.7961L39.6846 34.9546C39.7404 34.9607 39.7425 34.9709 39.6907 34.9851L38.3177 35.3615C37.4136 35.4204 36.51 35.5225 35.6068 35.6678C35.2046 35.7318 34.6103 35.7638 34.1211 35.8918C33.8103 35.974 33.5248 36.0198 33.2647 36.0289C32.4846 36.0579 31.9238 36.3139 31.1741 36.3169C30.7708 36.3179 30.3594 36.42 29.9398 36.6232C27.9543 36.5165 26.5554 36.8106 24.6385 37.4735C24.5242 37.5116 24.2682 37.4796 24.4952 37.3013L27.4347 36.419L28.9143 36.1203C28.9173 36.1701 28.932 36.2113 28.9585 36.2438C28.9713 36.2598 28.9906 36.2716 29.0144 36.2777C29.0381 36.2839 29.0652 36.2843 29.0926 36.2788C30.0571 36.0975 31.0217 35.9725 31.9863 35.7912C32.3627 35.7211 32.8427 35.7927 33.2724 35.587C33.3018 35.5728 33.347 35.5657 33.408 35.5657L33.9947 35.5702C34.0322 35.5702 34.2562 35.5103 34.6667 35.3904C35.8501 35.0471 37.0545 34.849 38.2796 34.7961Z" fill="#FB4876"/>
<path d="M38.3177 35.3616C39.0878 35.5881 39.8725 35.645 40.672 35.5322C40.7695 35.5185 40.8945 35.5581 40.9189 35.6541C40.9234 35.6719 40.934 35.6875 40.9484 35.6976C40.9628 35.7078 40.98 35.7118 40.9966 35.709L41.8682 35.5703C39.5825 36.896 37.1947 37.9937 34.7048 38.8633L33.0286 39.0157C32.8914 38.8623 32.7147 38.8059 32.4983 38.8465C32.4272 38.8597 32.4043 38.8414 32.4297 38.7917L32.509 38.6393C32.5216 38.6153 32.5265 38.5875 32.523 38.5596C32.5194 38.5317 32.5077 38.5048 32.4892 38.4823L31.8796 37.7204C31.838 37.6686 31.8146 37.628 31.8095 37.5985C31.7872 37.4583 31.6566 37.3715 31.4179 37.338C31.3953 37.3348 31.3735 37.3272 31.3539 37.3154C31.3344 37.3036 31.3174 37.288 31.304 37.2695C31.2906 37.251 31.2811 37.23 31.2761 37.2077C31.271 37.1854 31.2706 37.1623 31.2747 37.1399C31.2859 37.0769 31.2178 37.0347 31.0705 37.0134C30.6794 36.9575 30.3025 36.8275 29.9398 36.6233C30.3594 36.4201 30.7708 36.318 31.1741 36.317C31.9238 36.314 32.4846 36.058 33.2648 36.029C33.5248 36.0199 33.8103 35.9741 34.1212 35.8919C34.6103 35.7639 35.2046 35.7319 35.6069 35.6679C36.51 35.5226 37.4136 35.4205 38.3177 35.3616Z" fill="#FC55A2"/>
<path d="M17.9337 35.4363C18.1013 35.4789 18.1506 35.5734 18.0815 35.7197C18.0775 35.728 18.0753 35.737 18.075 35.7461C18.0747 35.7553 18.0764 35.7644 18.0798 35.7727C18.0833 35.7811 18.0885 35.7886 18.0951 35.7947C18.1017 35.8008 18.1096 35.8054 18.1181 35.8081C18.7352 35.9925 19.2229 36.4709 19.8979 36.3765C19.9701 36.3662 20.0438 36.379 20.1084 36.4133C20.1729 36.4475 20.2252 36.5013 20.2575 36.5669C20.3916 36.8392 20.5704 36.9758 20.7939 36.9769C21.247 37.0602 21.6356 37.2638 21.9596 37.5879C21.9785 37.6067 22.0003 37.6205 22.0223 37.6276C22.0443 37.6346 22.0655 37.6346 22.0831 37.6275C22.2039 37.5788 22.3228 37.5808 22.4396 37.6336C22.4965 37.6601 22.5498 37.671 22.589 37.6641C23.0867 37.5777 23.6226 37.4177 24.1966 37.1841C24.3063 37.1394 24.3698 37.1765 24.3871 37.2953L24.0762 37.4157L21.981 38.2538C20.8889 38.7181 19.8298 39.2631 18.8038 39.8888C18.2238 40.1967 17.6752 40.5492 17.1581 40.9464C17.2617 40.5187 17.1032 40.1911 16.6827 39.9635C16.4927 39.8609 16.3835 39.7045 16.3551 39.4942C16.3093 39.1447 16.0706 38.7313 15.6389 38.2538C15.4743 38.0709 15.3326 37.979 15.2137 37.978L14.9714 37.9749L15.3173 37.6169L17.2571 35.93L17.9337 35.4363Z" fill="#FCDEBC"/>
<path d="M29.9398 36.6232C30.3025 36.8274 30.6794 36.9574 31.0705 37.0133C31.2178 37.0346 31.2858 37.0768 31.2747 37.1397C31.2705 37.1622 31.271 37.1853 31.276 37.2076C31.2811 37.2299 31.2906 37.2509 31.304 37.2694C31.3173 37.2879 31.3343 37.3035 31.3539 37.3153C31.3735 37.327 31.3953 37.3347 31.4179 37.3378C31.6566 37.3714 31.7872 37.4582 31.8095 37.5984C31.8146 37.6279 31.838 37.6685 31.8796 37.7203L32.4891 38.4822C32.5077 38.5047 32.5194 38.5316 32.5229 38.5595C32.5265 38.5874 32.5216 38.6151 32.5089 38.6392L32.4297 38.7916C32.4043 38.8413 32.4272 38.8596 32.4983 38.8464C32.7147 38.8058 32.8914 38.8622 33.0286 39.0156L30.5844 39.2563C30.1902 38.3806 29.5202 37.8402 28.5745 37.635C28.5403 37.6279 28.5082 37.6245 28.4811 37.625C28.454 37.6256 28.4327 37.63 28.419 37.638L28.2301 37.7554C28.2075 37.7693 28.1825 37.7786 28.1565 37.7825C28.1306 37.7864 28.1043 37.785 28.0792 37.7782C27.4529 37.6045 26.8038 37.7477 26.339 37.7477C25.5751 37.7498 24.8117 37.7437 24.0488 37.7295C24.0412 37.7294 24.0338 37.7274 24.0272 37.7236C24.0205 37.7197 24.0149 37.7142 24.0106 37.7074C24.0063 37.7006 24.0035 37.6927 24.0025 37.6844C24.0014 37.6761 24.0022 37.6675 24.0046 37.6594L24.0762 37.4156L24.387 37.2952L24.4952 37.3013C24.2682 37.4796 24.5242 37.5116 24.6385 37.4735C26.5554 36.8106 27.9543 36.5165 29.9398 36.6232Z" fill="#FE7793"/>
<path d="M13.5939 37.1047C13.824 37.3775 13.9718 37.4247 14.3436 37.3851C14.687 37.3496 15.0115 37.4268 15.3173 37.6167L14.9714 37.9748L13.9931 38.9729C13.9368 37.9779 13.2206 38.8114 12.7467 38.6331C12.7385 38.6299 12.7312 38.6248 12.7252 38.6179C12.7192 38.6111 12.7148 38.6028 12.7121 38.5935C12.7093 38.5842 12.7084 38.5741 12.7094 38.5639C12.7104 38.5537 12.7132 38.5435 12.7177 38.5341C12.7583 38.4416 12.735 38.3695 12.6476 38.3177L13.5939 37.1047Z" fill="#76F282"/>
<path d="M24.0762 37.4155L24.0046 37.6593C24.0022 37.6675 24.0014 37.676 24.0025 37.6844C24.0035 37.6927 24.0063 37.7006 24.0106 37.7074C24.0149 37.7142 24.0206 37.7197 24.0272 37.7235C24.0338 37.7274 24.0412 37.7294 24.0488 37.7294C24.8117 37.7437 25.5751 37.7498 26.3391 37.7477C26.8038 37.7477 27.453 37.6045 28.0792 37.7782C28.1043 37.7849 28.1306 37.7864 28.1565 37.7825C28.1825 37.7785 28.2075 37.7693 28.2301 37.7553L28.419 37.638C28.4327 37.63 28.454 37.6256 28.4811 37.625C28.5082 37.6245 28.5403 37.6279 28.5745 37.635C29.5203 37.8402 30.1902 38.3806 30.5844 39.2563C29.5573 39.4056 28.5582 39.4671 27.587 39.4407C26.9095 39.3167 26.2248 39.2598 25.533 39.27C25.376 39.2715 25.1947 39.3675 25.0149 39.2502C24.9722 39.2228 24.926 39.206 24.8762 39.1999L23.9238 39.0902C23.8872 39.0861 23.8842 39.0689 23.9147 39.0384L23.971 38.982C24.0036 38.9495 24.0005 38.9348 23.9619 38.9378L23.2762 38.982C23.1726 38.9881 23.1634 38.9627 23.2488 38.9058C23.3026 38.8713 23.3625 38.8545 23.4286 38.8555C23.4621 38.8555 23.5093 38.8398 23.5703 38.8083C23.6231 38.7809 23.6257 38.7595 23.5779 38.7443C23.517 38.725 23.5119 38.6925 23.5627 38.6468C23.8319 38.4019 23.7257 38.3125 23.2442 38.3786C23.2187 38.3819 23.195 38.3831 23.1748 38.3821C23.1546 38.381 23.1383 38.3778 23.1269 38.3725C22.8637 38.2455 22.56 38.2546 22.2156 38.3999C22.0399 38.4741 21.9617 38.4253 21.981 38.2536L24.0762 37.4155Z" fill="#FF978C"/>
<path d="M17.1581 40.9463C16.4216 41.4562 15.7272 42.0033 15.0751 42.5874C15.0565 42.6041 15.0416 42.624 15.0316 42.6459C15.0217 42.6677 15.0167 42.6909 15.0172 42.7139C15.0202 42.8165 15.0451 42.915 15.0918 43.0095L14.2415 43.6952L13.9916 43.8979C13.8413 43.008 13.5533 42.179 13.1276 41.411C13.1086 41.3772 13.0891 41.3471 13.0714 41.3249C13.0538 41.3026 13.0388 41.2891 13.0286 41.2861C12.7888 41.216 12.7121 41.0697 12.7985 40.8472C12.8044 40.8314 12.8023 40.8118 12.7923 40.7917C12.7824 40.7715 12.7652 40.7519 12.7436 40.736C12.7091 40.7106 12.6878 40.6811 12.6796 40.6476L12.7619 40.4632L13.6762 39.3493L13.9932 38.9729L14.9714 37.9749L15.2137 37.9779C15.3326 37.9789 15.4743 38.0709 15.6389 38.2537C16.0706 38.7312 16.3093 39.1446 16.3551 39.4941C16.3835 39.7044 16.4927 39.8608 16.6827 39.9634C17.1032 40.191 17.2617 40.5186 17.1581 40.9463Z" fill="#FEEBCE"/>
<path d="M21.9809 38.2537C21.9616 38.4253 22.0399 38.4741 22.2156 38.3999C22.56 38.2547 22.8637 38.2455 23.1269 38.3725C23.1383 38.3778 23.1546 38.3811 23.1748 38.3821C23.195 38.3832 23.2187 38.382 23.2442 38.3786C23.7257 38.3126 23.8319 38.402 23.5627 38.6468C23.5119 38.6925 23.5169 38.725 23.5779 38.7443C23.6256 38.7596 23.6231 38.7809 23.5703 38.8083C23.5093 38.8398 23.4621 38.8556 23.4286 38.8556C23.3625 38.8546 23.3026 38.8713 23.2488 38.9059C23.1634 38.9627 23.1726 38.9881 23.2762 38.982L23.9619 38.9379C24.0005 38.9348 24.0035 38.9495 23.971 38.982L23.9147 39.0384C23.8842 39.0689 23.8872 39.0862 23.9238 39.0902L24.8762 39.1999C24.926 39.206 24.9722 39.2228 25.0149 39.2502C25.1947 39.3676 25.376 39.2716 25.5329 39.27C26.2248 39.2599 26.9095 39.3168 27.587 39.4407C25.9947 39.6556 24.6491 39.5626 22.819 39.8415C22.9938 39.7907 23.0537 39.7302 22.9988 39.6601C22.9861 39.6446 22.9672 39.6322 22.9439 39.624C22.9205 39.6158 22.8934 39.612 22.8648 39.6129C22.1364 39.6358 21.4583 39.8476 20.7482 39.8994C20.418 39.9238 20.0884 39.9654 19.7592 40.0243C19.4281 40.0843 19.1096 40.0391 18.8038 39.8887C19.8298 39.2629 20.8889 38.7179 21.9809 38.2537Z" fill="#FFAD81"/>
<path d="M12.6476 38.3176C12.735 38.3694 12.7584 38.4416 12.7177 38.534C12.7132 38.5435 12.7104 38.5536 12.7094 38.5639C12.7084 38.5741 12.7093 38.5842 12.7121 38.5935C12.7148 38.6027 12.7193 38.6111 12.7252 38.6179C12.7312 38.6247 12.7385 38.6299 12.7467 38.6331C13.2206 38.8113 13.9368 37.9778 13.9931 38.9729L13.6762 39.3492C13.2668 39.1136 12.8371 39.076 12.3871 39.2365C12.3778 39.24 12.3679 39.2415 12.3581 39.2409C12.3484 39.2404 12.339 39.2378 12.3308 39.2333C12.3226 39.2289 12.3159 39.2227 12.3111 39.2153C12.3063 39.2079 12.3036 39.1995 12.3032 39.1908C12.3002 38.9866 12.6583 38.8052 12.381 38.6986L12.6476 38.3176Z" fill="#98F692"/>
<path d="M12.381 38.6987C12.6583 38.8054 12.3002 38.9867 12.3033 39.1909C12.3036 39.1996 12.3063 39.208 12.3111 39.2154C12.3159 39.2228 12.3226 39.229 12.3308 39.2335C12.339 39.2379 12.3484 39.2405 12.3582 39.2411C12.3679 39.2416 12.3778 39.2401 12.3871 39.2366C12.8371 39.0761 13.2668 39.1137 13.6762 39.3494L12.7619 40.4633C12.4831 40.3993 12.9966 40.029 12.5471 39.8568C12.5296 39.85 12.5089 39.85 12.4877 39.8568C12.4665 39.8636 12.4458 39.8769 12.4282 39.8949C12.3673 39.9569 12.32 39.967 12.2865 39.9254C12.2706 39.9061 12.2541 39.8892 12.2401 39.878C12.226 39.8667 12.2154 39.8619 12.2103 39.8644L12.0137 39.9422C11.9947 39.9496 11.9741 39.9511 11.9556 39.9464C11.937 39.9416 11.9215 39.931 11.9116 39.9163C11.8527 39.8279 11.7806 39.7649 11.6953 39.7273L12.381 38.6987Z" fill="#AEFBA2"/>
<path d="M34.7048 38.8633C33.2876 39.4505 31.84 39.9365 30.3619 40.3216C30.1983 40.1722 30.0053 40.1067 29.7829 40.125C29.4933 40.1494 29.3125 40.1575 29.2404 40.1494C28.5303 40.064 27.8171 40.0275 27.101 40.0397C26.7307 40.0458 26.3878 39.8736 25.9718 39.9437C25.7727 39.9762 25.599 39.9838 25.4507 39.9665C24.8731 39.8979 24.5074 40.2606 23.8842 40.0854C23.8354 40.0722 23.7867 40.0717 23.7379 40.0839C23.2686 40.2027 22.8373 40.1098 22.3726 40.1981C22.1308 40.2439 21.886 40.2677 21.6381 40.2698C21.6304 40.2699 21.6229 40.268 21.616 40.2644C21.6092 40.2607 21.6034 40.2553 21.5989 40.2486C21.5945 40.2419 21.5915 40.2341 21.5904 40.2259C21.5893 40.2177 21.5899 40.2092 21.5924 40.2012C21.6046 40.1636 21.6071 40.124 21.6 40.0823L22.819 39.8416C24.6491 39.5627 25.9947 39.6557 27.587 39.4408C28.5582 39.4672 29.5573 39.4058 30.5844 39.2564L33.0286 39.0157L34.7048 38.8633Z" fill="#FE4B02"/>
<path d="M22.8191 39.8415L21.6 40.0823C20.6227 40.258 19.681 40.548 18.7749 40.9524C18.2984 41.1098 17.8433 41.315 17.4095 41.568C16.8071 41.8453 16.2296 42.1892 15.677 42.5996L15.0918 43.0095C15.0451 42.915 15.0202 42.8165 15.0171 42.7139C15.0167 42.6909 15.0216 42.6677 15.0316 42.6459C15.0416 42.624 15.0564 42.6041 15.0751 42.5874C15.7272 42.0033 16.4216 41.4562 17.1581 40.9463C17.6752 40.5491 18.2238 40.1965 18.8038 39.8887C19.1096 40.0391 19.4281 40.0843 19.7592 40.0244C20.0884 39.9654 20.418 39.9238 20.7482 39.8994C21.4583 39.8476 22.1364 39.6358 22.8648 39.6129C22.8934 39.612 22.9206 39.6158 22.9439 39.624C22.9673 39.6323 22.9861 39.6447 22.9989 39.6602C23.0537 39.7303 22.9938 39.7907 22.8191 39.8415Z" fill="#FFCE93"/>
<path d="M11.6952 39.7273C11.7806 39.7649 11.8527 39.8279 11.9116 39.9163C11.9215 39.931 11.937 39.9416 11.9555 39.9463C11.9741 39.9511 11.9946 39.9496 12.0137 39.9422L12.2103 39.8644C12.2154 39.8619 12.226 39.8667 12.2401 39.878C12.2541 39.8892 12.2706 39.9061 12.2865 39.9254C12.32 39.967 12.3672 39.9569 12.4282 39.8949C12.4458 39.8769 12.4665 39.8636 12.4877 39.8568C12.5089 39.85 12.5295 39.85 12.547 39.8568C12.9966 40.029 12.483 40.3993 12.7619 40.4633L12.6796 40.6477C10.7251 43.3895 9.34501 46.399 8.53943 49.6762C8.30984 49.4863 8.20114 49.2481 8.21333 48.9616C8.21383 48.9535 8.21231 48.9454 8.20889 48.938C8.20548 48.9307 8.20028 48.9243 8.19377 48.9195C8.18727 48.9146 8.17966 48.9115 8.17163 48.9103C8.16361 48.9092 8.15542 48.91 8.14781 48.9128L8.04419 48.9524C8.67606 45.6427 9.89308 42.5677 11.6952 39.7273Z" fill="#D4FEC1"/>
<path d="M30.3619 40.3215C28.321 40.8904 26.2639 41.378 24.1905 41.7843C24.4998 41.475 23.4027 41.7767 23.3783 41.7813C23.2594 41.8036 23.1685 41.7381 23.1055 41.5847C23.0967 41.5621 23.0831 41.5422 23.0662 41.5265C23.0492 41.5109 23.0292 41.5 23.008 41.4948C21.982 41.2449 20.9412 41.1342 19.8857 41.1626C19.5947 41.1702 19.3219 41.0407 18.9318 41.1474C18.7845 41.187 18.7322 41.122 18.7749 40.9523C19.681 40.548 20.6227 40.258 21.6 40.0822C21.6071 40.1239 21.6046 40.1635 21.5924 40.2011C21.59 40.2091 21.5893 40.2176 21.5904 40.2258C21.5916 40.2341 21.5945 40.2418 21.5989 40.2485C21.6034 40.2552 21.6093 40.2606 21.6161 40.2643C21.6229 40.2679 21.6304 40.2698 21.6381 40.2697C21.886 40.2676 22.1308 40.2438 22.3726 40.198C22.8373 40.1097 23.2686 40.2026 23.7379 40.0838C23.7867 40.0716 23.8354 40.0721 23.8842 40.0853C24.5074 40.2605 24.8732 39.8979 25.4507 39.9664C25.599 39.9837 25.7727 39.9761 25.9718 39.9436C26.3878 39.8735 26.7307 40.0457 27.101 40.0396C27.8172 40.0274 28.5303 40.0639 29.2404 40.1493C29.3125 40.1574 29.4933 40.1493 29.7829 40.1249C30.0053 40.1066 30.1984 40.1721 30.3619 40.3215Z" fill="#FF6A04"/>
<path d="M12.6796 40.6477C12.6878 40.6812 12.7091 40.7107 12.7436 40.7361C12.7652 40.752 12.7824 40.7716 12.7923 40.7918C12.8023 40.8119 12.8045 40.8315 12.7985 40.8473C12.7121 41.0698 12.7888 41.2161 13.0286 41.2862C13.0388 41.2892 13.0538 41.3027 13.0714 41.325C13.0891 41.3472 13.1086 41.3772 13.1276 41.4111C13.5533 42.1791 13.8413 43.0081 13.9916 43.898C12.0686 45.6717 10.5559 47.7502 9.45373 50.1334L9.40954 50.1776C9.30287 50.3127 9.17182 50.3823 9.01639 50.3864C9.00378 50.3866 8.99126 50.3852 8.97956 50.3822C8.96786 50.3792 8.95722 50.3748 8.94828 50.3691C8.93933 50.3634 8.93225 50.3566 8.92746 50.3491C8.92267 50.3416 8.92027 50.3336 8.92039 50.3254C8.92141 50.0796 8.99861 49.8673 9.15201 49.6885C9.18655 49.6478 9.18249 49.6301 9.13982 49.6351C9.06769 49.6443 9.01741 49.6834 8.98896 49.7525C8.98066 49.774 8.96877 49.7928 8.95504 49.806C8.94132 49.8191 8.92649 49.826 8.91277 49.8256C8.72484 49.8195 8.65017 49.9099 8.68877 50.0968C8.69378 50.1209 8.69183 50.1456 8.68316 50.1681C8.67449 50.1906 8.65948 50.2098 8.64001 50.2233C8.53944 50.2944 8.46376 50.2645 8.41296 50.1334L8.53944 49.6763C9.34503 46.3991 10.7251 43.3895 12.6796 40.6477Z" fill="#FFF7E1"/>
<path d="M18.7749 40.9524C18.7322 41.122 18.7845 41.1871 18.9318 41.1474C19.3219 41.0408 19.5947 41.1703 19.8857 41.1627C20.9412 41.1342 21.982 41.245 23.008 41.4949C23.0292 41.5001 23.0492 41.5109 23.0662 41.5266C23.0831 41.5422 23.0967 41.5622 23.1055 41.5848C23.1685 41.7382 23.2594 41.8037 23.3783 41.7813C23.4027 41.7768 24.4998 41.4751 24.1905 41.7844L22.4061 42.2034C21.5121 41.8723 20.8879 41.6813 20.5333 41.6305C20.2103 41.5848 19.423 41.5761 18.1714 41.6046C17.9855 41.6092 17.3303 41.8088 17.4095 41.568C17.8433 41.3151 18.2984 41.1099 18.7749 40.9524Z" fill="#FF8B06"/>
<path d="M17.4095 41.5681C17.3303 41.8089 17.9855 41.6093 18.1714 41.6047C19.423 41.5762 20.2103 41.5849 20.5333 41.6306C20.8879 41.6814 21.5121 41.8724 22.4061 42.2035C20.479 42.6698 18.5996 43.2687 16.768 44.0001C16.6532 43.8193 16.5008 43.8066 16.3108 43.962C16.3688 43.7802 16.3241 43.5872 16.1768 43.383C16.1685 43.3715 16.1632 43.3582 16.1611 43.3442C16.159 43.3302 16.1602 43.316 16.1647 43.3027C16.1692 43.2894 16.1768 43.2775 16.1868 43.2678C16.1969 43.2582 16.2091 43.2512 16.2225 43.2474L16.5318 43.1559C16.567 43.1453 16.5981 43.1287 16.6204 43.1086C16.6427 43.0885 16.6549 43.0661 16.6552 43.0447L16.6583 42.9334C16.6588 42.9238 16.6558 42.9143 16.6496 42.9055C16.6434 42.8968 16.6341 42.889 16.6223 42.8827C16.6106 42.8763 16.5965 42.8716 16.5812 42.8688C16.5659 42.866 16.5495 42.8652 16.5333 42.8664C16.2154 42.8908 15.9299 42.8019 15.6769 42.5997C16.2296 42.1893 16.8071 41.8454 17.4095 41.5681Z" fill="#FFB911"/>
<path d="M15.6769 42.5996C15.9299 42.8018 16.2154 42.8907 16.5333 42.8663C16.5495 42.8651 16.5659 42.8659 16.5812 42.8687C16.5965 42.8715 16.6106 42.8762 16.6224 42.8825C16.6341 42.8889 16.6434 42.8967 16.6496 42.9054C16.6558 42.9142 16.6588 42.9237 16.6583 42.9333L16.6552 43.0446C16.655 43.0659 16.6427 43.0884 16.6204 43.1085C16.5981 43.1286 16.567 43.1452 16.5318 43.1558L16.2225 43.2472C16.2091 43.251 16.1969 43.2581 16.1868 43.2677C16.1768 43.2773 16.1692 43.2893 16.1647 43.3026C16.1602 43.3159 16.159 43.3301 16.1611 43.3441C16.1632 43.358 16.1686 43.3713 16.1768 43.3828C16.3241 43.587 16.3688 43.7801 16.3109 43.9619L15.1253 44.5623C15.0898 44.5806 15.074 44.5608 15.0781 44.5028C15.1086 44.1209 14.9298 43.8893 14.5417 43.808C14.5319 43.806 14.5152 43.8088 14.4935 43.816C14.4717 43.8233 14.4457 43.8347 14.4183 43.8491C14.2771 43.9253 14.2182 43.874 14.2415 43.6952L15.0918 43.0095L15.6769 42.5996Z" fill="#FFCF34"/>
<path d="M14.2415 43.6953C14.2182 43.8741 14.2771 43.9254 14.4183 43.8492C14.4457 43.8348 14.4717 43.8234 14.4935 43.8161C14.5152 43.8089 14.5319 43.8061 14.5417 43.8081C14.9298 43.8893 15.1086 44.121 15.0781 44.5029C15.074 44.5608 15.0898 44.5806 15.1253 44.5624L16.3109 43.962C16.5008 43.8066 16.6532 43.8192 16.768 44.0001C13.4685 45.4954 11.0177 47.87 9.41563 51.1239C9.36992 50.7561 9.45474 50.4209 9.67011 50.1182C9.70465 50.0694 9.69398 50.044 9.63811 50.042C9.57106 50.0389 9.5096 50.0694 9.45373 50.1334C10.5559 47.7502 12.0686 45.6717 13.9916 43.898L14.2415 43.6953Z" fill="#FFE256"/>
<path d="M8.53943 49.6761L8.41296 50.1332C8.096 51.2538 7.88166 52.3936 7.76991 53.5527C7.76699 53.5786 7.75981 53.6031 7.74881 53.6246C7.73781 53.6461 7.72321 53.6641 7.70591 53.6776C7.61651 53.7457 7.5134 53.7833 7.39658 53.7904C7.46769 52.1579 7.68356 50.5452 8.04419 48.9523L8.14781 48.9127C8.15542 48.9099 8.16361 48.909 8.17164 48.9102C8.17966 48.9113 8.18727 48.9145 8.19378 48.9193C8.20029 48.9242 8.20548 48.9305 8.2089 48.9379C8.21231 48.9452 8.21384 48.9533 8.21334 48.9614C8.20115 49.2479 8.30985 49.4861 8.53943 49.6761Z" fill="#E7FEA2"/>
<path d="M9.40952 50.1776C8.56228 52.0194 7.96495 53.757 7.61752 55.3906C7.58907 55.5226 7.55504 55.6212 7.51542 55.6862C7.50516 55.703 7.49964 55.7227 7.49937 55.7435C7.4991 55.7643 7.50411 55.7855 7.5139 55.805L7.61295 56.0001L7.34628 56.9906L7.23199 56.9525L7.39657 53.7906C7.51339 53.7834 7.6165 53.7459 7.7059 53.6778C7.7232 53.6643 7.7378 53.6462 7.7488 53.6248C7.7598 53.6033 7.76698 53.5788 7.7699 53.5528C7.88165 52.3937 8.09599 51.2539 8.41295 50.1334C8.46374 50.2645 8.53942 50.2944 8.63999 50.2233C8.65946 50.2098 8.67447 50.1906 8.68314 50.1681C8.69182 50.1456 8.69377 50.1208 8.68876 50.0968C8.65015 49.9099 8.72482 49.8195 8.91276 49.8256C8.92648 49.826 8.9413 49.8191 8.95502 49.806C8.96875 49.7928 8.98065 49.774 8.98895 49.7525C9.01739 49.6834 9.06768 49.6443 9.1398 49.6351C9.18247 49.63 9.18653 49.6478 9.152 49.6885C8.9986 49.8672 8.92139 50.0796 8.92038 50.3254C8.92025 50.3335 8.92266 50.3416 8.92745 50.3491C8.93223 50.3566 8.93931 50.3634 8.94826 50.3691C8.95721 50.3748 8.96784 50.3792 8.97954 50.3822C8.99124 50.3851 9.00376 50.3866 9.01638 50.3864C9.1718 50.3823 9.30285 50.3127 9.40952 50.1776Z" fill="#FEF7C0"/>
<path d="M9.41561 51.1239C8.70856 52.7096 8.10768 54.335 7.61295 56.0001L7.5139 55.805C7.5041 55.7854 7.4991 55.7643 7.49937 55.7435C7.49964 55.7227 7.50516 55.7029 7.51542 55.6861C7.55504 55.6211 7.58907 55.5226 7.61752 55.3905C7.96495 53.757 8.56228 52.0194 9.40952 50.1776L9.45371 50.1334C9.50958 50.0694 9.57104 50.0389 9.63809 50.042C9.69396 50.044 9.70463 50.0694 9.67009 50.1181C9.45472 50.4209 9.3699 50.7561 9.41561 51.1239Z" fill="#FFE311"/>
</g>
<defs>
<clipPath id="clip0_12_180">
<rect width="64" height="64" fill="white"/>
</clipPath>
</defs>
</svg>
