<svg width="64" height="64" viewBox="0 0 64 64" fill="none" xmlns="http://www.w3.org/2000/svg">
<rect width="64" height="64" fill="#1E1E1E"/>
<path d="M32 32.3557C32 30.564 32.7117 28.8457 33.9787 27.5788C35.2456 26.3118 36.9639 25.6001 38.7556 25.6001C40.5472 25.6001 42.2655 26.3118 43.5325 27.5788C44.7994 28.8457 45.5111 30.564 45.5111 32.3557C45.5111 34.1473 44.7994 35.8656 43.5325 37.1326C42.2655 38.3995 40.5472 39.1112 38.7556 39.1112C36.9639 39.1112 35.2456 38.3995 33.9787 37.1326C32.7117 35.8656 32 34.1473 32 32.3557Z" fill="#1ABCFE"/>
<path d="M18.4889 45.8666C18.4889 44.075 19.2006 42.3567 20.4675 41.0897C21.7345 39.8228 23.4528 39.1111 25.2444 39.1111H32V45.8666C32 47.6583 31.2883 49.3766 30.0213 50.6435C28.7544 51.9105 27.0361 52.6222 25.2444 52.6222C23.4528 52.6222 21.7345 51.9105 20.4675 50.6435C19.2006 49.3766 18.4889 47.6583 18.4889 45.8666V45.8666Z" fill="#0ACF83"/>
<path d="M32 12.0889V25.6H38.7556C40.5472 25.6 42.2655 24.8882 43.5325 23.6213C44.7994 22.3544 45.5111 20.6361 45.5111 18.8444C45.5111 17.0527 44.7994 15.3344 43.5325 14.0675C42.2655 12.8006 40.5472 12.0889 38.7556 12.0889H32Z" fill="#FF7262"/>
<path d="M18.4889 18.8444C18.4889 20.6361 19.2006 22.3544 20.4675 23.6213C21.7345 24.8882 23.4528 25.6 25.2444 25.6H32V12.0889H25.2444C23.4528 12.0889 21.7345 12.8006 20.4675 14.0675C19.2006 15.3344 18.4889 17.0527 18.4889 18.8444V18.8444Z" fill="#F24E1E"/>
<path d="M18.4889 32.3557C18.4889 34.1473 19.2006 35.8656 20.4675 37.1326C21.7345 38.3995 23.4528 39.1112 25.2444 39.1112H32V25.6001H25.2444C23.4528 25.6001 21.7345 26.3118 20.4675 27.5788C19.2006 28.8457 18.4889 30.564 18.4889 32.3557V32.3557Z" fill="#A259FF"/>
</svg>
