<svg width="64" height="64" viewBox="0 0 64 64" fill="none" xmlns="http://www.w3.org/2000/svg">
<path d="M60.4319 0L55.2909 57.5933L32.1814 64L9.13565 57.6023L4 0H60.4319Z" fill="#E44D26"/>
<path d="M32.2159 59.1031L50.8894 53.9261L55.2829 4.70996H32.2159V59.1031Z" fill="#F16529"/>
<path d="M22.2219 18.8394H32.2159V11.7747H14.501L14.6701 13.67L16.4065 33.1384H32.2159V26.0738H22.8675L22.2219 18.8394Z" fill="#EBEBEB"/>
<path d="M23.8141 36.6709H16.7222L17.712 47.7635L32.1835 51.7809L32.216 51.7718V44.4216L32.185 44.4298L24.317 42.3053L23.8141 36.6709Z" fill="#EBEBEB"/>
<path d="M32.1915 33.1383H40.8909L40.0709 42.3007L32.1915 44.4274V51.7773L46.6745 47.7634L46.7808 46.5698L48.4409 27.9708L48.6133 26.0737H32.1915V33.1383Z" fill="white"/>
<path d="M32.1915 18.8222V18.8394H49.2561L49.3978 17.2515L49.7197 13.67L49.8887 11.7747H32.1915V18.8222Z" fill="white"/>
</svg>
