<svg width="64" height="64" viewBox="0 0 64 64" fill="none" xmlns="http://www.w3.org/2000/svg">
<g clip-path="url(#clip0_12_724)">
<path d="M0 23.1618C0 15.0545 0 11.0008 1.57781 7.90414C2.96569 5.18027 5.18027 2.96569 7.90414 1.57781C11.0008 0 15.0545 0 23.1618 0H40.8382C48.9456 0 52.9993 0 56.0958 1.57781C58.8197 2.96569 61.0343 5.18027 62.4222 7.90414C64 11.0008 64 15.0545 64 23.1618V40.8382C64 48.9456 64 52.9993 62.4222 56.0958C61.0343 58.8197 58.8197 61.0343 56.0958 62.4222C52.9993 64 48.9456 64 40.8382 64H23.1618C15.0545 64 11.0008 64 7.90414 62.4222C5.18027 61.0343 2.96569 58.8197 1.57781 56.0958C0 52.9993 0 48.9456 0 40.8382V23.1618Z" fill="#330000"/>
<path d="M31.097 40.201H20.905L18.8313 46.5402C18.7737 46.7758 18.5477 46.9425 18.3018 46.9308H13.1395C12.8451 46.9308 12.7422 46.7717 12.8307 46.4532L21.655 21.4438C21.7433 21.1833 21.8316 20.8867 21.9197 20.5538C22.0353 19.9744 22.0943 19.3857 22.0964 18.7954C22.071 18.621 22.2307 18.4669 22.405 18.4913H29.4205C29.6261 18.4913 29.7435 18.5637 29.7733 18.7084L39.7892 46.4967C39.8773 46.7863 39.7892 46.931 39.5245 46.9308H33.7885C33.5874 46.9529 33.3953 46.8206 33.3473 46.627L31.097 40.201ZM22.4934 34.7301H29.4647C28.3193 30.9749 27.0267 27.269 25.979 23.4846C24.8487 27.2755 23.6155 31.0511 22.4934 34.7301Z" fill="#FF9A00"/>
<path d="M45.4426 22.5689C44.975 22.5871 44.5089 22.5094 44.0742 22.3412C43.6398 22.1731 43.2469 21.9178 42.9214 21.5926C42.5968 21.253 42.3444 20.8549 42.1792 20.4207C42.014 19.9867 41.9391 19.5253 41.9586 19.0629C41.942 18.6052 42.0252 18.1493 42.2029 17.7248C42.3808 17.3004 42.649 16.9171 42.9902 16.5998C43.3279 16.2858 43.7267 16.0399 44.1635 15.8761C44.6001 15.7123 45.066 15.634 45.5341 15.6457C46.6345 15.6457 47.4977 15.9637 48.1242 16.5998C48.4405 16.9304 48.6862 17.3181 48.8475 17.7407C49.0086 18.1633 49.0823 18.6128 49.0638 19.0629C49.0831 19.5269 49.0057 19.9901 48.8363 20.4246C48.6672 20.8591 48.4092 21.2562 48.0783 21.5926C47.7325 21.9227 47.3196 22.1798 46.8661 22.3479C46.4124 22.5159 45.9278 22.5912 45.4426 22.5689ZM42.2795 46.4895V25.2761C42.2795 25.0098 42.4013 24.8766 42.6463 24.8766H48.2848C48.5288 24.8766 48.6511 25.0098 48.6513 25.2761V46.4895C48.6513 46.7858 48.5291 46.9336 48.2848 46.9334H42.6922C42.4171 46.9334 42.2795 46.7855 42.2795 46.4895Z" fill="#FF9A00"/>
</g>
<defs>
<clipPath id="clip0_12_724">
<rect width="64" height="64" fill="white"/>
</clipPath>
</defs>
</svg>
