<svg width="64" height="64" viewBox="0 0 64 64" fill="none" xmlns="http://www.w3.org/2000/svg">
<g clip-path="url(#clip0_12_432)">
<rect width="64" height="64" rx="32" fill="#F0F0F0"/>
<path d="M33.5573 28.3947V50.5814H29.4187V26.8374L33.5573 28.3947Z" fill="black"/>
<path d="M17.024 26.3254C17.024 20.6507 20.1173 17.5574 23.744 17.5574C27.3707 17.5574 27.8827 18.0694 32 20.1387C36.1173 22.208 37.1627 22.72 39.232 22.72C41.3013 22.72 42.3253 21.1627 42.3253 18.0694H45.9307C46.4427 24.256 42.8373 26.8374 39.2107 26.8374C35.584 26.8374 34.56 26.3254 30.9547 24.256C27.3493 22.1867 26.304 21.6747 24.2347 21.6747C22.1653 21.6747 21.1413 23.232 20.6293 26.8374L17.024 26.3254Z" fill="black"/>
<path d="M32 64C14.3573 64 0 49.6427 0 32C0 14.3573 14.3573 0 32 0C49.6427 0 64 14.3573 64 32C64 49.6427 49.6427 64 32 64ZM32 2.06933C15.488 2.06933 2.06933 15.488 2.06933 32C2.06933 48.512 15.488 61.9307 32 61.9307C48.512 61.9307 61.9307 48.512 61.9307 32C61.9307 15.488 48.512 2.06933 32 2.06933Z" fill="black"/>
</g>
<rect x="0.5" y="0.5" width="63" height="63" rx="31.5" stroke="black"/>
<defs>
<clipPath id="clip0_12_432">
<rect width="64" height="64" rx="32" fill="white"/>
</clipPath>
</defs>
</svg>
